<svg width="14" height="14" viewBox="0 0 14 14" fill="none" xmlns="http://www.w3.org/2000/svg">
<path d="M10.4607 6.38138C10.3898 6.22475 10.2341 6.125 10.0626 6.125H8.31255V0.4375C8.31255 0.196 8.11655 0 7.87505 0H6.12505C5.88355 0 5.68755 0.196 5.68755 0.4375V6.125H3.93755C3.76605 6.125 3.6103 6.22563 3.53943 6.38138C3.46768 6.538 3.49568 6.72087 3.60855 6.85038L6.67105 10.3504C6.75418 10.4458 6.87405 10.5 7.00005 10.5C7.12605 10.5 7.24593 10.4449 7.32905 10.3504L10.3916 6.85038C10.5053 6.72175 10.5315 6.538 10.4607 6.38138Z" fill="#2D9CDB"/>
<path d="M11.8125 9.625V12.25H2.1875V9.625H0.4375V13.125C0.4375 13.6089 0.8295 14 1.3125 14H12.6875C13.1714 14 13.5625 13.6089 13.5625 13.125V9.625H11.8125Z" fill="#2D9CDB"/>
</svg>
