<svg width="16" height="14" viewBox="0 0 16 14" fill="none" xmlns="http://www.w3.org/2000/svg">
<path fill-rule="evenodd" clip-rule="evenodd" d="M15.6668 12.3711V4.55719C15.6668 4.12546 15.4912 3.71132 15.1788 3.40593C14.8662 3.10086 14.4422 2.92928 14.0002 2.92928H8.20617L8.00016 2.52686C7.71783 1.97533 7.14083 1.62695 6.5095 1.62695H2.00016C1.07983 1.62695 0.333496 2.35593 0.333496 3.25486C0.333496 5.50984 0.333496 10.1162 0.333496 12.3711C0.333496 13.2701 1.07983 13.999 2.00016 13.999C4.78916 13.999 11.2112 13.999 14.0002 13.999C14.4422 13.999 14.8662 13.8275 15.1788 13.5224C15.4912 13.217 15.6668 12.8029 15.6668 12.3711ZM15.0002 5.85951V12.3711C15.0002 12.6303 14.8948 12.8787 14.7072 13.0617C14.5198 13.245 14.2655 13.3479 14.0002 13.3479C11.2112 13.3479 4.78916 13.3479 2.00016 13.3479C1.44783 13.3479 1.00016 12.9106 1.00016 12.3711V3.25486C1.00016 2.71537 1.44783 2.27812 2.00016 2.27812H6.5095C6.88817 2.27812 7.2345 2.48714 7.40383 2.81793L8.36882 4.70272C8.42516 4.81309 8.5405 4.88277 8.66683 4.88277C8.66683 4.88277 12.0545 4.88277 14.0002 4.88277C14.2655 4.88277 14.5198 4.98565 14.7072 5.16895C14.8948 5.35193 15.0002 5.60035 15.0002 5.85951ZM8.5395 3.58044L8.87283 4.2316H14.0002C14.3628 4.2316 14.7135 4.34719 15.0002 4.55719C15.0002 4.29802 14.8948 4.0496 14.7072 3.86663C14.5198 3.68332 14.2655 3.58044 14.0002 3.58044H8.5395Z" fill="white"/>
</svg>
