<svg width="50" height="50" viewBox="0 0 50 50" fill="none" xmlns="http://www.w3.org/2000/svg">
<circle cx="25" cy="25" r="25" fill="#8C181A" fill-opacity="0.23"/>
<path d="M28 18.1719V11H15.5C14.6687 11 14 11.5643 14 12.2656V36.7344C14 37.4357 14.6687 38 15.5 38H36.5C37.3313 38 38 37.4357 38 36.7344V19.4375H29.5C28.675 19.4375 28 18.868 28 18.1719ZM32.0737 29.563H28V33.7818C28 34.248 27.5525 34.6255 27 34.6255H25C24.4475 34.6255 24 34.248 24 33.7818V29.563H19.9262C19.0337 29.563 18.5881 28.6512 19.2219 28.1202L25.2481 23.0735C25.6638 22.725 26.335 22.725 26.7506 23.0735L32.7769 28.1202C33.4112 28.6512 32.9662 29.563 32.0737 29.563ZM37.5625 16.5371L31.4438 11.3691C31.1625 11.1318 30.7813 11 30.3813 11H30V17.75H38V17.4283C38 17.0961 37.8438 16.7744 37.5625 16.5371Z" fill="#8C181A"/>
</svg>
