<svg width="50" height="50" viewBox="0 0 50 50" fill="none" xmlns="http://www.w3.org/2000/svg">
<path fill-rule="evenodd" clip-rule="evenodd" d="M46.1716 24.454C46.1716 36.3069 36.5627 45.9157 24.7098 45.9157C12.8569 45.9157 3.24805 36.3069 3.24805 24.454C3.24805 12.601 12.8569 2.99219 24.7098 2.99219C36.5627 2.99219 46.1716 12.601 46.1716 24.454" fill="#2D6A4F"/>
<path d="M33.9658 13.875L21.9805 25.8603C19.9992 23.8799 18.0115 21.8917 16.0335 19.9172L11.1621 24.7946C17.8974 31.5353 24.5807 38.2201 31.2601 44.8985C39.4337 42.2817 45.4758 34.9015 46.116 26.023C42.0651 21.973 38.0151 17.925 33.9651 13.875" fill="black" fill-opacity="0.235"/>
<path d="M33.965 13.875L21.9767 25.8632L16.0336 19.9162L11.1592 24.7936L17.1023 30.7377L21.9767 35.6152L26.8542 30.7377L38.8395 18.7525L33.9651 13.875" fill="white"/>
<path fill-rule="evenodd" clip-rule="evenodd" d="M25 0C11.1931 0 0 11.1931 0 25C0 38.8069 11.1931 50 25 50C38.8069 50 50 38.8069 50 25C50 11.1931 38.8069 0 25 0ZM25.8654 4.405C37.7183 4.405 47.3262 14.0128 47.3262 25.8658C47.3262 37.7187 37.7183 47.3266 25.8654 47.3266C14.0125 47.3266 4.40167 37.7187 4.40167 25.8658C4.40167 14.0128 14.0125 4.405 25.8654 4.405" fill="black" fill-opacity="0.067"/>
<path fill-rule="evenodd" clip-rule="evenodd" d="M25.0006 0.335938C11.3791 0.335938 0.336914 11.3781 0.336914 24.9997C0.336914 38.6212 11.3791 49.6634 25.0006 49.6634C38.6222 49.6634 49.6644 38.6212 49.6644 24.9997C49.6644 11.3781 38.6222 0.335938 25.0006 0.335938V0.335938ZM25.5776 4.11594C37.4305 4.11594 47.0384 13.7238 47.0384 25.5767C47.0384 37.4297 37.4305 47.0375 25.5776 47.0375C13.7247 47.0375 4.11388 37.4297 4.11388 25.5767C4.11388 13.7238 13.7247 4.11594 25.5776 4.11594" fill="black" fill-opacity="0.129"/>
<path fill-rule="evenodd" clip-rule="evenodd" d="M25.0001 0.72168C11.5913 0.72168 0.72168 11.5913 0.72168 25.0001C0.72168 38.4089 11.5913 49.2785 25.0001 49.2785C38.4089 49.2785 49.2785 38.4089 49.2785 25.0001C49.2785 11.5913 38.4089 0.72168 25.0001 0.72168V0.72168ZM25.2885 3.82864C37.1415 3.82864 46.7493 13.4365 46.7493 25.2894C46.7493 37.1424 37.1415 46.7502 25.2885 46.7502C13.4356 46.7502 3.82482 37.1424 3.82482 25.2894C3.82482 13.4365 13.4356 3.82864 25.2885 3.82864Z" fill="black" fill-opacity="0.129"/>
<path fill-rule="evenodd" clip-rule="evenodd" d="M24.7111 0.671875C11.4346 0.671875 0.672852 11.4346 0.672852 24.7101C0.672852 37.9866 11.4356 48.7483 24.7111 48.7483C37.9876 48.7483 48.7493 37.9856 48.7493 24.7101C48.7493 11.4336 37.9866 0.671875 24.7111 0.671875V0.671875ZM24.7111 3.25001C36.564 3.25001 46.1719 12.8579 46.1719 24.7108C46.1719 36.5637 36.564 46.1716 24.7111 46.1716C12.8581 46.1716 3.24736 36.5637 3.24736 24.7108C3.24736 12.8579 12.8581 3.25001 24.7111 3.25001V3.25001Z" fill="white" stroke="black" stroke-opacity="0.31" stroke-width="0.123611"/>
</svg>
