<svg width="274" height="157" viewBox="0 0 274 157" fill="none" xmlns="http://www.w3.org/2000/svg">
<path d="M30.4523 23.2585L84.0255 8.94945C87.7161 7.96372 91.0317 7.24439 94.0944 7.00823C110.354 5.07589 117.166 13.5638 124.212 39.7772L136.72 86.3098C143.767 112.523 142.125 123.269 127.075 129.699C124.304 131.021 121.072 132.051 117.381 133.036L63.8079 147.346C60.1173 148.331 56.8017 149.051 53.739 149.287C37.4792 151.219 30.6678 142.731 23.6214 116.518L11.1131 69.9851C4.0667 43.7718 5.70798 33.0262 20.7587 26.5957C23.5295 25.2738 26.7617 24.2442 30.4523 23.2585Z" fill="white" stroke="#282F34" stroke-width="1.53764"/>
<rect width="68.7449" height="10.4032" rx="5.20162" transform="matrix(0.966132 -0.258047 0.259593 0.965718 34.5356 64.9585)" fill="white" stroke="#282F34" stroke-width="1.53764"/>
<rect width="10.4321" height="10.4032" rx="5.20162" transform="matrix(0.966132 -0.258047 0.259593 0.965718 29.4111 45.8952)" fill="white" stroke="#282F34" stroke-width="1.53764"/>
<rect width="10.4321" height="10.4032" rx="5.20162" transform="matrix(0.966132 -0.258047 0.259593 0.965718 46.209 41.4088)" fill="white" stroke="#282F34" stroke-width="1.53764"/>
<rect width="68.7449" height="10.4032" rx="5.20162" transform="matrix(0.966132 -0.258047 0.259593 0.965718 39.521 83.5057)" fill="white" stroke="#282F34" stroke-width="1.53764"/>
<rect width="68.7449" height="10.4032" rx="5.20162" transform="matrix(0.966132 -0.258047 0.259593 0.965718 44.6455 102.57)" fill="white" stroke="#282F34" stroke-width="1.53764"/>
<rect width="68.7449" height="10.4032" rx="5.20162" transform="matrix(0.966132 -0.258047 0.259593 0.965718 49.6313 121.116)" fill="white" stroke="#282F34" stroke-width="1.53764"/>
<path d="M189.974 10.6551L243.547 24.9642C247.238 25.9499 250.47 26.9795 253.241 28.3014C268.291 34.7319 269.933 45.4775 262.886 71.6908L250.378 118.223C243.332 144.437 236.52 152.925 220.26 150.992C217.198 150.756 213.882 150.037 210.191 149.051L156.618 134.742C152.928 133.756 149.695 132.727 146.925 131.405C131.874 124.974 130.233 114.229 137.279 88.0155L149.787 41.4829C156.834 15.2695 163.645 6.78158 179.905 8.71392C182.968 8.95009 186.283 9.66942 189.974 10.6551Z" fill="white" stroke="#282F34" stroke-width="1.53764"/>
<rect width="68.7449" height="10.4032" rx="5.20162" transform="matrix(0.966132 0.258047 -0.259593 0.965718 172.593 48.8038)" fill="white" stroke="#282F34" stroke-width="1.53764"/>
<rect width="10.4321" height="10.4032" rx="5.20162" transform="matrix(0.966132 0.258047 -0.259593 0.965718 177.717 29.7406)" fill="white" stroke="#282F34" stroke-width="1.53764"/>
<rect width="10.4321" height="10.4032" rx="5.20162" transform="matrix(0.966132 0.258047 -0.259593 0.965718 194.515 34.2271)" fill="white" stroke="#282F34" stroke-width="1.53764"/>
<rect width="68.7449" height="10.4032" rx="5.20162" transform="matrix(0.966132 0.258047 -0.259593 0.965718 167.607 67.3509)" fill="white" stroke="#282F34" stroke-width="1.53764"/>
<rect width="68.7449" height="10.4032" rx="5.20162" transform="matrix(0.966132 0.258047 -0.259593 0.965718 162.483 86.4142)" fill="white" stroke="#282F34" stroke-width="1.53764"/>
<rect width="68.7449" height="10.4032" rx="5.20162" transform="matrix(0.966132 0.258047 -0.259593 0.965718 157.497 104.961)" fill="white" stroke="#282F34" stroke-width="1.53764"/>
<path d="M109.202 1.58585H164.665C168.486 1.58585 171.875 1.74643 174.895 2.30846C191.102 4.63688 195.478 14.5929 195.478 41.731V89.9051C195.478 117.043 191.102 126.999 174.895 129.328C171.875 129.89 168.486 130.05 164.665 130.05H109.202C105.381 130.05 101.992 129.89 98.9721 129.328C82.7646 126.999 78.3892 117.043 78.3892 89.9051V41.731C78.3892 14.5929 82.7646 4.63688 98.9721 2.30846C101.992 1.74643 105.381 1.58585 109.202 1.58585Z" fill="white" stroke="#282F34" stroke-width="1.53764"/>
<rect x="102.318" y="42.9189" width="68.7596" height="10.401" rx="5.2005" fill="white" stroke="#282F34" stroke-width="1.53764"/>
<rect x="102.318" y="23.1834" width="10.4343" height="10.401" rx="5.2005" fill="white" stroke="#282F34" stroke-width="1.53764"/>
<rect x="119.709" y="23.1834" width="10.4343" height="10.401" rx="5.2005" fill="white" stroke="#282F34" stroke-width="1.53764"/>
<rect x="102.318" y="62.1207" width="68.7596" height="10.401" rx="5.2005" fill="white" stroke="#282F34" stroke-width="1.53764"/>
<rect x="102.318" y="81.8547" width="68.7596" height="10.401" rx="5.2005" fill="white" stroke="#282F34" stroke-width="1.53764"/>
<path d="M128.643 154.003H145.137C158.882 154.003 164.379 148.522 164.379 134.821V118.38C164.379 104.679 158.882 99.1992 145.137 99.1992H128.643C114.898 99.1992 109.4 104.679 109.4 118.38V134.821C109.4 148.522 114.898 154.003 128.643 154.003Z" fill="#0F75BC" stroke="#282F34" stroke-width="1.53764"/>
<path d="M126.265 126.432H147.514" stroke="white" stroke-width="3.07528" stroke-linecap="round" stroke-linejoin="round"/>
<path d="M136.72 137.192V116.01" stroke="white" stroke-width="3.07528" stroke-linecap="round" stroke-linejoin="round"/>
</svg>
