<svg width="65" height="54" viewBox="0 0 65 54" fill="none" xmlns="http://www.w3.org/2000/svg">
<path d="M64.0446 34.7122C64.0446 34.6035 64.0228 34.4948 63.9864 34.4007V4.2342C63.9864 1.89993 62.087 0.000505699 59.7527 0.000505699L4.27825 0C1.94398 0 0.0445557 1.89942 0.0445557 4.2337V40.5845C0.0445557 42.9188 1.94398 44.8182 4.27825 44.8182H23.077L20.8661 52.0026H16.3639C15.9073 52.0026 15.53 52.3723 15.53 52.8365C15.53 53.3008 15.8997 53.6704 16.3639 53.6704H47.7111C48.1677 53.6704 48.545 53.3008 48.545 52.8365C48.545 52.3723 48.1753 52.0026 47.7111 52.0026H43.2089L40.998 44.8182H59.7385C62.0727 44.8182 63.9722 42.9188 63.9722 40.5845V35.0238C64.0086 34.9298 64.0303 34.821 64.0303 34.7123L64.0446 34.7122ZM4.27854 1.65359H59.7465C61.1676 1.65359 62.32 2.80608 62.32 4.22711V33.8784H1.70606V4.23488C1.70606 2.8138 2.85854 1.66136 4.27957 1.66136L4.27854 1.65359ZM41.4773 52.0028H22.606L24.8169 44.8183H39.2659L41.4768 52.0028H41.4773ZM59.7465 43.151L4.27854 43.1505C2.85747 43.1505 1.70502 41.998 1.70502 40.577V35.5382L62.3268 35.5387V40.5775C62.3268 41.9986 61.1743 43.151 59.7532 43.151H59.7465Z" fill="black"/>
<path d="M14.7117 22.4965C19.6558 22.4965 23.6797 18.4732 23.6797 13.5285C23.6797 8.58433 19.6563 4.56049 14.7117 4.56049C9.76749 4.56049 5.74365 8.58381 5.74365 13.5285C5.74365 18.4727 9.76698 22.4965 14.7117 22.4965V22.4965ZM22.012 13.5285C22.012 17.5518 18.7351 20.8288 14.7117 20.8288C13.0009 20.8288 11.42 20.2341 10.1735 19.2409L15.2993 14.1151C15.4586 13.9629 15.5455 13.7454 15.5455 13.528V6.27113C19.185 6.68429 22.0195 9.78012 22.0195 13.528L22.012 13.5285ZM13.8778 6.27167V13.1805L8.99178 18.0666C7.99858 16.8195 7.40383 15.2392 7.40383 13.5284C7.40383 9.78014 10.2383 6.68478 13.8778 6.27155V6.27167Z" fill="black"/>
<path d="M6.57645 30.7469H24.5272C24.9839 30.7469 25.3611 30.3772 25.3611 29.913C25.3611 29.4488 24.9915 29.0791 24.5272 29.0791L6.57645 29.0796C6.11981 29.0796 5.74255 29.4493 5.74255 29.9135C5.74255 30.3777 6.11222 30.7474 6.57645 30.7474V30.7469Z" fill="black"/>
<path d="M33.5311 16.399H36.8297C36.8732 16.399 36.9096 16.4061 36.9531 16.4061H40.6649C40.7084 16.4061 40.7519 16.4061 40.7883 16.399H44.0071C44.0506 16.399 44.087 16.4061 44.1305 16.4061H47.8423C47.8858 16.4061 47.9293 16.4061 47.9657 16.399H51.1844C51.2279 16.399 51.2643 16.4061 51.3078 16.4061H55.0197C55.0632 16.4061 55.1067 16.4061 55.1431 16.399H56.245C56.7016 16.399 57.0789 16.0293 57.0789 15.5651C57.0789 15.1009 56.7092 14.7312 56.245 14.7312H55.8536V6.14741C55.8536 5.69077 55.4839 5.31352 55.0197 5.31352H51.3078C50.8512 5.31352 50.4739 5.68319 50.4739 6.14741V14.7312H48.6686V9.41729C48.6686 8.96065 48.299 8.58339 47.8347 8.58339H44.1229C43.6662 8.58339 43.289 8.95306 43.289 9.41729V14.7312H41.4837V11.6064C41.4837 11.1498 41.114 10.7725 40.6498 10.7725H36.9379C36.4813 10.7725 36.104 11.1422 36.104 11.6064V14.7312H34.3422V5.45157C34.3422 4.99493 33.9726 4.61768 33.5083 4.61768C33.0441 4.61768 32.6744 4.98735 32.6744 5.45157V15.5574C32.6744 16.014 33.0441 16.3913 33.5083 16.3913L33.5311 16.399ZM52.1486 6.98188H54.1931V14.7393H52.1486V6.98188ZM44.9712 10.2518H47.0158V14.7322H44.9712V10.2518ZM37.7939 12.4485H39.8385V14.7393H37.7939V12.4485Z" fill="black"/>
<path d="M33.531 30.7469H56.2446C56.7013 30.7469 57.0785 30.3772 57.0785 29.913C57.0785 29.4488 56.7088 29.0791 56.2446 29.0791H34.3583V27.0857L37.2362 24.7949C37.49 24.5921 37.9538 24.5921 38.2076 24.7949L39.8532 26.129C40.7012 26.8178 42.0423 26.8248 42.898 26.1437L47.335 22.6422C47.5959 22.4394 48.0602 22.4394 48.3064 22.6422L49.778 23.8599C50.6336 24.5633 51.9818 24.5775 52.8516 23.8816L56.346 21.0906C56.701 20.8009 56.7662 20.2785 56.4764 19.9235C56.1867 19.5685 55.6643 19.5033 55.3093 19.793L51.8149 22.584C51.5611 22.7868 51.0897 22.7868 50.8435 22.584L49.3719 21.3663C48.5239 20.6629 47.1751 20.6487 46.3124 21.3375L41.8755 24.839C41.6216 25.0417 41.1579 25.0417 40.904 24.839L39.2585 23.5049C38.4028 22.8161 37.0617 22.809 36.2066 23.4902L34.3653 24.9547V19.793C34.3653 19.3364 33.9956 18.9591 33.5314 18.9591C33.0672 18.9591 32.6975 19.3288 32.6975 19.793V29.8988C32.6975 30.3555 33.0672 30.7327 33.5314 30.7327L33.531 30.7469Z" fill="black"/>
<path d="M6.57645 26.6366H15.5516C16.0082 26.6366 16.3855 26.2669 16.3855 25.8027C16.3855 25.3385 16.0158 24.9688 15.5516 24.9688L6.57645 24.9693C6.11981 24.9693 5.74255 25.339 5.74255 25.8032C5.74255 26.2674 6.11222 26.6371 6.57645 26.6371V26.6366Z" fill="black"/>
</svg>
