<svg width="119" height="24" viewBox="0 0 119 24" fill="none" xmlns="http://www.w3.org/2000/svg">
<path d="M55.7071 4.29289C55.3166 3.90237 54.6834 3.90237 54.2929 4.29289C53.9024 4.68342 53.9024 5.31658 54.2929 5.70711L55.7071 4.29289ZM62 12L62.7071 12.7071C63.0976 12.3166 63.0976 11.6834 62.7071 11.2929L62 12ZM54.2929 18.2929C53.9024 18.6834 53.9024 19.3166 54.2929 19.7071C54.6834 20.0976 55.3166 20.0976 55.7071 19.7071L54.2929 18.2929ZM54.2929 5.70711L61.2929 12.7071L62.7071 11.2929L55.7071 4.29289L54.2929 5.70711ZM61.2929 11.2929L54.2929 18.2929L55.7071 19.7071L62.7071 12.7071L61.2929 11.2929Z" fill="black"/>
<path d="M9 5L16 12L9 19" stroke="black" stroke-width="2" stroke-linecap="round" stroke-linejoin="round"/>
<path d="M29.7071 4.29289C29.3166 3.90237 28.6834 3.90237 28.2929 4.29289C27.9024 4.68342 27.9024 5.31658 28.2929 5.70711L29.7071 4.29289ZM36 12L36.7071 12.7071C37.0976 12.3166 37.0976 11.6834 36.7071 11.2929L36 12ZM28.2929 18.2929C27.9024 18.6834 27.9024 19.3166 28.2929 19.7071C28.6834 20.0976 29.3166 20.0976 29.7071 19.7071L28.2929 18.2929ZM28.2929 5.70711L35.2929 12.7071L36.7071 11.2929L29.7071 4.29289L28.2929 5.70711ZM35.2929 11.2929L28.2929 18.2929L29.7071 19.7071L36.7071 12.7071L35.2929 11.2929Z" fill="black"/>
<path d="M79.7071 4.29289C79.3166 3.90237 78.6834 3.90237 78.2929 4.29289C77.9024 4.68342 77.9024 5.31658 78.2929 5.70711L79.7071 4.29289ZM86 12L86.7071 12.7071C87.0976 12.3166 87.0976 11.6834 86.7071 11.2929L86 12ZM78.2929 18.2929C77.9024 18.6834 77.9024 19.3166 78.2929 19.7071C78.6834 20.0976 79.3166 20.0976 79.7071 19.7071L78.2929 18.2929ZM78.2929 5.70711L85.2929 12.7071L86.7071 11.2929L79.7071 4.29289L78.2929 5.70711ZM85.2929 11.2929L78.2929 18.2929L79.7071 19.7071L86.7071 12.7071L85.2929 11.2929Z" fill="black"/>
<path d="M104.707 4.29289C104.317 3.90237 103.683 3.90237 103.293 4.29289C102.902 4.68342 102.902 5.31658 103.293 5.70711L104.707 4.29289ZM111 12L111.707 12.7071C112.098 12.3166 112.098 11.6834 111.707 11.2929L111 12ZM103.293 18.2929C102.902 18.6834 102.902 19.3166 103.293 19.7071C103.683 20.0976 104.317 20.0976 104.707 19.7071L103.293 18.2929ZM103.293 5.70711L110.293 12.7071L111.707 11.2929L104.707 4.29289L103.293 5.70711ZM110.293 11.2929L103.293 18.2929L104.707 19.7071L111.707 12.7071L110.293 11.2929Z" fill="black"/>
</svg>
