<svg width="17" height="22" viewBox="0 0 17 22" fill="none" xmlns="http://www.w3.org/2000/svg">
<path d="M14.629 18.3031C14.6074 17.9913 14.5637 17.6512 14.4994 17.2921C14.4344 16.9303 14.3508 16.5883 14.2507 16.2756C14.1472 15.9525 14.0067 15.6334 13.8328 15.3276C13.6525 15.0103 13.4406 14.7339 13.2028 14.5065C12.9541 14.2686 12.6497 14.0773 12.2976 13.9377C11.9468 13.799 11.558 13.7286 11.1421 13.7286C10.9788 13.7286 10.8208 13.7957 10.5157 13.9943C10.328 14.1167 10.1084 14.2583 9.86328 14.4149C9.65369 14.5485 9.36975 14.6736 9.01904 14.7869C8.67688 14.8976 8.32947 14.9537 7.98645 14.9537C7.64368 14.9537 7.29626 14.8976 6.95386 14.7869C6.60352 14.6737 6.31946 14.5486 6.11023 14.415C5.86743 14.2599 5.64771 14.1183 5.45715 13.9941C5.15234 13.7955 4.99438 13.7285 4.83105 13.7285C4.41504 13.7285 4.02637 13.799 3.67566 13.9379C3.32385 14.0771 3.01929 14.2684 2.77039 14.5066C2.53259 14.7341 2.32068 15.0104 2.1405 15.3276C1.9668 15.6334 1.82617 15.9524 1.72266 16.2758C1.62268 16.5884 1.53906 16.9303 1.47412 17.2921C1.40967 17.6507 1.36609 17.991 1.34448 18.3035C1.32324 18.609 1.3125 18.927 1.3125 19.2483C1.3125 20.0835 1.578 20.7596 2.10156 21.2583C2.61865 21.7503 3.30273 21.9999 4.13489 21.9999H11.839C12.6709 21.9999 13.355 21.7503 13.8722 21.2583C14.3959 20.76 14.6614 20.0836 14.6614 19.2482C14.6613 18.9258 14.6504 18.6078 14.629 18.3031ZM13.2257 20.579C12.884 20.9042 12.4304 21.0622 11.8389 21.0622H4.13489C3.54321 21.0622 3.0896 20.9042 2.74805 20.5791C2.41296 20.2601 2.25012 19.8247 2.25012 19.2483C2.25012 18.9485 2.26001 18.6525 2.27979 18.3683C2.29907 18.0895 2.3385 17.7832 2.39697 17.4578C2.45471 17.1363 2.5282 16.8347 2.6156 16.5616C2.69946 16.2998 2.81384 16.0405 2.95569 15.7908C3.09106 15.5527 3.24683 15.3485 3.4187 15.184C3.57947 15.03 3.7821 14.9041 4.02087 14.8096C4.2417 14.7222 4.48987 14.6743 4.75928 14.6671C4.79211 14.6846 4.85059 14.7179 4.94531 14.7797C5.13806 14.9053 5.36023 15.0486 5.60583 15.2054C5.88269 15.382 6.23938 15.5414 6.66553 15.679C7.1012 15.8198 7.54553 15.8914 7.98657 15.8914C8.42761 15.8914 8.87207 15.8198 9.3075 15.6791C9.73401 15.5413 10.0906 15.382 10.3678 15.2052C10.6191 15.0446 10.8351 14.9054 11.0278 14.7797C11.1226 14.718 11.181 14.6846 11.2139 14.6671C11.4834 14.6743 11.7316 14.7222 11.9525 14.8096C12.1912 14.9041 12.3938 15.0301 12.5546 15.184C12.7264 15.3484 12.8822 15.5526 13.0176 15.7909C13.1595 16.0405 13.274 16.2999 13.3578 16.5615C13.4453 16.835 13.5189 17.1365 13.5765 17.4576C13.6349 17.7837 13.6744 18.0901 13.6937 18.3684V18.3686C13.7136 18.6517 13.7236 18.9476 13.7238 19.2483C13.7236 19.8248 13.5608 20.2601 13.2257 20.579Z" fill="white"/>
<path d="M6.74697 12.5072L3.24072 9.001L4.24231 7.99941L6.74804 10.5023L6.74697 10.5034L12.7572 4.49316L13.7588 5.49475L7.74856 11.5057L6.74768 12.5065L6.74697 12.5072Z" fill="white"/>
</svg>
