<svg width="14" height="14" viewBox="0 0 14 14" fill="none" xmlns="http://www.w3.org/2000/svg">
<g clip-path="url(#clip0_2145_1024)">
<path d="M12.7502 1.87695H10.1252V0.876953C10.1252 0.808203 10.069 0.751953 10.0002 0.751953H9.12525C9.0565 0.751953 9.00025 0.808203 9.00025 0.876953V1.87695H5.00024V0.876953C5.00024 0.808203 4.94399 0.751953 4.87524 0.751953H4.00024C3.93149 0.751953 3.87524 0.808203 3.87524 0.876953V1.87695H1.25024C0.973682 1.87695 0.750244 2.10039 0.750244 2.37695V12.752C0.750244 13.0285 0.973682 13.252 1.25024 13.252H12.7502C13.0268 13.252 13.2502 13.0285 13.2502 12.752V2.37695C13.2502 2.10039 13.0268 1.87695 12.7502 1.87695ZM12.1252 12.127H1.87524V3.00195H3.87524V3.75195C3.87524 3.8207 3.93149 3.87695 4.00024 3.87695H4.87524C4.94399 3.87695 5.00024 3.8207 5.00024 3.75195V3.00195H9.00025V3.75195C9.00025 3.8207 9.0565 3.87695 9.12525 3.87695H10.0002C10.069 3.87695 10.1252 3.8207 10.1252 3.75195V3.00195H12.1252V12.127ZM9.75025 5.56445H8.88774C8.80806 5.56445 8.73149 5.60352 8.68462 5.66758L6.32681 8.91445L5.31587 7.52383C5.26899 7.45977 5.19399 7.4207 5.11274 7.4207H4.25024C4.14868 7.4207 4.08931 7.53633 4.14868 7.61914L6.12368 10.3379C6.14704 10.3699 6.1776 10.3959 6.2129 10.4138C6.24819 10.4317 6.28722 10.441 6.32681 10.441C6.36639 10.441 6.40542 10.4317 6.44072 10.4138C6.47601 10.3959 6.50658 10.3699 6.52993 10.3379L9.85181 5.76445C9.91118 5.68008 9.85181 5.56445 9.75025 5.56445Z" fill="#0F75BC"/>
</g>
<defs>
<clipPath id="clip0_2145_1024">
<rect width="14" height="14" fill="white"/>
</clipPath>
</defs>
</svg>
