<svg width="13" height="16" viewBox="0 0 13 16" fill="none" xmlns="http://www.w3.org/2000/svg">
<g clip-path="url(#clip0_2148_1126)">
<path d="M6.375 4.25004C7.16125 4.25004 7.79167 3.61254 7.79167 2.83337C7.79167 2.56421 7.72083 2.31629 7.58625 2.10379L6.375 4.1008e-05L5.16375 2.10379C5.02917 2.31629 4.95833 2.56421 4.95833 2.83337C4.95833 3.61254 5.59583 4.25004 6.375 4.25004ZM10.625 6.37504H7.08333V4.95837H5.66667V6.37504H2.125C0.949167 6.37504 0 7.32421 0 8.50004V14.875C0 15.2646 0.31875 15.5834 0.708333 15.5834H12.0417C12.4312 15.5834 12.75 15.2646 12.75 14.875V8.50004C12.75 7.32421 11.8008 6.37504 10.625 6.37504ZM11.5 14.5L1.25 14.5834V11.5834C1.8875 11.5763 2.125 11.5834 2.75 11.0834L3.81164 10.1774L4.75 11C5.85333 11.6738 6.37452 12.0276 7.45589 11.3538L8.86833 9.98899L10 11.3538C10.4533 11.8071 10.8625 11.993 11.5 12V14.5ZM11.5 11.3263C11.1388 11.3192 10.6321 10.8375 10.3771 10.5755L8.86833 9.06671L7.3525 10.5755C6.82833 11.0996 5.91458 11.0996 5.39042 10.5755L3.88167 9.06671L2.36583 10.5755C2.11792 10.8305 1.61125 10.993 1.25 11V8.58337C1.25 7.58337 1.73542 7.42418 2.125 7.42418H10.625C11.0146 7.42418 11.5 8.11046 11.5 8.50004V11.3263Z" fill="#0F75BC"/>
</g>
<defs>
<clipPath id="clip0_2148_1126">
<rect width="13" height="16" fill="white"/>
</clipPath>
</defs>
</svg>
