<svg width="36" height="32" viewBox="0 0 36 32" fill="none" xmlns="http://www.w3.org/2000/svg">
<path d="M15.0115 1.59099C20.1035 1.50898 24.6244 4.09918 27.2486 8.06308L27.9729 7.62444C25.1979 3.41202 20.4008 0.657801 14.9985 0.744162C6.59407 0.877741 -0.132094 7.83133 0.00196979 16.2444C0.136654 24.6555 7.08253 31.3898 15.4857 31.2556C23.8889 31.1208 30.617 24.1672 30.4823 15.7554C30.4419 13.2354 29.7865 10.8682 28.6687 8.78938L27.9431 9.22802C28.9865 11.182 29.5984 13.4044 29.6357 15.7691C29.7629 23.7136 23.4085 30.2814 15.4721 30.4075C7.53686 30.5355 0.975795 24.1753 0.848559 16.2307C0.721943 8.2855 7.07571 1.71774 15.0115 1.59099Z" fill="#81848D"/>
<path d="M15.0786 5.7922C18.6307 5.73504 21.7856 7.50575 23.655 10.2345L26.5696 8.47249C24.0907 4.74407 19.8311 2.31292 15.0253 2.38996C7.51519 2.50987 1.52576 8.70113 1.64679 16.2176C1.7672 23.7335 7.95152 29.7303 15.4597 29.6091C22.9679 29.4886 28.9574 23.298 28.8376 15.7815C28.8028 13.5616 28.2337 11.4759 27.2623 9.6393L24.3384 11.4069C25.0118 12.7414 25.4127 14.2406 25.4382 15.8361C25.5282 21.4732 21.037 26.1168 15.4045 26.2069C9.77318 26.297 5.13556 21.8 5.04432 16.1629C4.95618 10.5259 9.44795 5.88291 15.0786 5.7922Z" fill="#81848D"/>
<path d="M15.1323 9.1946C17.4313 9.15794 19.4776 10.2707 20.7357 11.9991L23.6541 10.2347C21.7846 7.50591 18.6298 5.7352 15.0777 5.79236C9.44702 5.88245 4.95526 10.5254 5.04402 16.1631C5.13526 21.8002 9.77349 26.2971 15.4042 26.207C21.0361 26.117 25.5279 21.4727 25.4379 15.8363C25.4124 14.2408 25.0115 12.7422 24.338 11.4071L21.4222 13.1703C21.802 14.0004 22.0242 14.9193 22.0391 15.891C22.0987 19.6486 19.1046 22.7452 15.3489 22.8048C11.5958 22.8651 8.50299 19.8667 8.44279 16.109C8.38382 12.3496 11.3792 9.25487 15.1323 9.1946Z" fill="white"/>
<path d="M15.1876 12.5971C16.2322 12.5803 17.1731 13.0376 17.8075 13.7689L20.7364 11.9988C19.4783 10.2703 17.4313 9.15758 15.133 9.19424C11.3798 9.2545 8.3845 12.3492 8.44471 16.1081C8.50429 19.8657 11.5977 22.8641 15.3509 22.8038C19.1059 22.7442 22.1006 19.6482 22.041 15.89C22.0255 14.9183 21.8039 13.9994 21.4241 13.1693L18.4778 14.9506C18.5789 15.2643 18.6361 15.5974 18.6416 15.944C18.672 17.8229 17.175 19.3705 15.2969 19.401C13.4206 19.4308 11.8745 17.9316 11.8441 16.0528C11.8137 14.1746 13.3101 12.6269 15.1876 12.5971Z" fill="#81848D"/>
<path d="M15.6924 15.0476L17.8076 13.7689C17.1727 13.037 16.2324 12.5798 15.1878 12.5972C13.3103 12.627 11.8138 14.1746 11.843 16.0541C11.8734 17.9329 13.4195 19.4321 15.2958 19.4023C17.1739 19.3718 18.671 17.8242 18.6405 15.9453C18.6356 15.5987 18.5779 15.2656 18.4767 14.9519L16.3099 16.2616C16.0356 16.4275 15.6787 16.3461 15.5012 16.0764L15.4689 16.0267C15.2548 15.6962 15.3547 15.2526 15.6924 15.0476Z" fill="white"/>
<path d="M34.7573 7.40831C34.8926 7.47976 35.0565 7.47479 35.1862 7.39589L35.6337 7.12562C35.7013 7.08462 35.7417 7.01006 35.7386 6.93116C35.738 6.85163 35.692 6.78018 35.6219 6.7429L33.5514 5.65003L33.7841 5.50962C33.8331 5.4798 33.8704 5.43009 33.8834 5.37294C33.8971 5.3164 33.8871 5.25551 33.8561 5.20581L33.5644 4.73734C33.5005 4.63545 33.367 4.60377 33.264 4.66527L33.0238 4.81066L32.9735 2.4901C32.9717 2.41244 32.9288 2.34099 32.8606 2.30309C32.7923 2.26581 32.7085 2.26643 32.6415 2.30744L32.1964 2.57646C32.063 2.65723 31.9829 2.80262 31.9854 2.95856L32.0394 5.40586L31.9215 5.47856L31.8693 3.158C31.8681 3.07972 31.824 3.00827 31.7558 2.96975C31.6881 2.93309 31.6037 2.93433 31.5361 2.97472L31.091 3.24374C30.957 3.32513 30.8775 3.47051 30.8806 3.62646L30.9352 6.07376L30.8161 6.14583L30.7639 3.82528C30.7633 3.74699 30.7199 3.67554 30.651 3.63764C30.5839 3.59974 30.4995 3.60099 30.4319 3.64199L29.9875 3.91102C29.854 3.99178 29.774 4.13779 29.7771 4.29374L29.8236 6.3782C29.8243 6.45586 29.7845 6.52855 29.7194 6.56832L27.974 7.62328L27.2497 8.06192L26.5707 8.47198L23.6561 10.234L20.7377 11.9985L17.8088 13.7686L15.6935 15.0472C15.3559 15.2522 15.2554 15.6958 15.4701 16.0258L15.5024 16.0755C15.6799 16.3445 16.0368 16.4265 16.3111 16.2606L18.4779 14.9509L21.4242 13.1696L24.34 11.4064L27.264 9.63878L27.9449 9.2281L28.6704 8.78946L30.4145 7.73512C30.4784 7.69536 30.5597 7.69287 30.6268 7.72891L32.5502 8.74349C32.6849 8.81494 32.8481 8.81059 32.9791 8.73044L33.4266 8.46018C33.4936 8.41979 33.534 8.34524 33.5327 8.26633C33.5303 8.1868 33.4849 8.11535 33.4161 8.0787L31.3436 6.98583L31.4578 6.91687L33.655 8.07559C33.7903 8.14766 33.9523 8.14269 34.0833 8.06316L34.5308 7.7929C34.5984 7.75127 34.6388 7.67734 34.6375 7.59781C34.635 7.51953 34.5904 7.44746 34.5202 7.4108L32.4484 6.31855L32.5614 6.24959L34.7573 7.40831Z" fill="#27AE60"/>
</svg>
