<svg width="36" height="36" viewBox="0 0 36 36" fill="none" xmlns="http://www.w3.org/2000/svg">
<path d="M18 18L31.5 4.5" stroke="#0000FE" stroke-width="2" stroke-linecap="round" stroke-linejoin="round"/>
<path d="M27.5485 8.45156C25.1552 6.05102 21.9478 4.63648 18.5613 4.4879C15.1748 4.33931 11.8559 5.46752 9.26151 7.64922C6.66713 9.83092 4.98634 12.9071 4.55183 16.2689C4.11731 19.6307 4.96073 23.0332 6.91515 25.8028C8.86957 28.5725 11.7926 30.5074 15.1056 31.2248C18.4186 31.9421 21.8802 31.3895 24.8052 29.6764C27.7302 27.9633 29.9055 25.2144 30.9005 21.974C31.8956 18.7335 31.6378 15.2376 30.1782 12.1781" stroke="#0000FE" stroke-width="2" stroke-linecap="round" stroke-linejoin="round"/>
<path d="M22.7672 13.2328C21.6523 12.1211 20.1833 11.435 18.6153 11.2938C17.0472 11.1525 15.4792 11.5649 14.1836 12.4595C12.888 13.354 11.9467 14.6742 11.5232 16.1905C11.0997 17.7069 11.2207 19.3237 11.8653 20.7602C12.5098 22.1966 13.6371 23.3618 15.0515 24.0535C16.4658 24.7453 18.0777 24.9197 19.6073 24.5465C21.1368 24.1734 22.4874 23.2763 23.4243 22.011C24.3612 20.7457 24.8253 19.1922 24.7359 17.6203" stroke="#0000FE" stroke-width="2" stroke-linecap="round" stroke-linejoin="round"/>
</svg>
