<svg width="48" height="48" viewBox="0 0 48 48" fill="none" xmlns="http://www.w3.org/2000/svg">
<path d="M24 44C20.0427 44.0023 16.1736 42.8306 12.8825 40.6331C9.59134 38.4357 7.02608 35.3112 5.51136 31.6553C3.99664 27.9993 3.60055 23.9761 4.37323 20.095C5.1459 16.2138 7.05261 12.6491 9.85203 9.85199C13.6043 6.09971 18.6935 3.9917 24 3.9917C29.3066 3.9917 34.3957 6.09971 38.148 9.85199C41.9003 13.6043 44.0083 18.6935 44.0083 24C44.0083 29.3065 41.9003 34.3957 38.148 38.148C36.2939 40.0105 34.0888 41.4867 31.6602 42.4912C29.2317 43.4957 26.6281 44.0086 24 44V44ZM8.00002 24.344C8.04548 28.5723 9.76292 32.6107 12.777 35.5766C15.791 38.5424 19.8566 40.1945 24.0851 40.1718C28.3136 40.149 32.3612 38.4533 35.3432 35.4553C38.3252 32.4572 39.9991 28.4006 39.9991 24.172C39.9991 19.9434 38.3252 15.8868 35.3432 12.8887C32.3612 9.89066 28.3136 8.19495 24.0851 8.17222C19.8566 8.14949 15.791 9.80159 12.777 12.7674C9.76292 15.7333 8.04548 19.7717 8.00002 24V24.344ZM18.818 32L15.998 29.18L21.18 24L16 18.82L18.82 16L24 21.18L29.18 16L32 18.82L26.82 24L32 29.18L29.184 32L24 26.82L18.82 32H18.818Z" fill="#D90429"/>
</svg>
