<svg width="14" height="14" viewBox="0 0 14 14" fill="none" xmlns="http://www.w3.org/2000/svg">
<path d="M11.8021 2.81277H9.4361V1.857C9.4361 1.35892 9.0161 0.955078 8.4981 0.955078H5.5021C4.9841 0.955078 4.5641 1.35892 4.5641 1.857V2.81277H2.1981C1.1761 2.81277 0.350098 3.607 0.350098 4.58969V10.7416C0.350098 11.7243 1.1761 12.5185 2.1981 12.5185H11.8161C12.8381 12.5185 13.6641 11.7243 13.6641 10.7416V4.58969C13.6501 3.607 12.8241 2.81277 11.8021 2.81277ZM5.2781 1.857C5.2781 1.73585 5.3761 1.64162 5.5021 1.64162H8.4981C8.6241 1.64162 8.7221 1.73585 8.7221 1.857V2.81277H5.2781V1.857ZM2.1981 3.49931H11.8161C12.4321 3.49931 12.9501 3.98392 12.9501 4.58969V5.96277C11.6481 6.33969 10.1221 6.582 8.5261 6.67623V6.38008C8.5261 5.98969 8.1901 5.66662 7.7841 5.66662H6.2441C5.8381 5.66662 5.5021 5.98969 5.5021 6.38008V6.67623C3.9061 6.582 2.3801 6.33969 1.0781 5.96277V4.58969C1.0641 3.98392 1.5681 3.49931 2.1981 3.49931ZM7.7981 6.38008V7.68585C7.7981 7.69931 7.7841 7.71277 7.7701 7.71277L6.2161 7.68585L6.2441 6.33969L7.7981 6.38008ZM11.8021 11.8185H2.1981C1.5821 11.8185 1.0641 11.3339 1.0641 10.7282V6.67623C2.3801 7.03969 3.8921 7.26854 5.4881 7.36277V7.68585C5.4881 8.07623 5.8241 8.39931 6.2301 8.39931H7.7421C8.1481 8.39931 8.4841 8.07623 8.4841 7.68585V7.36277C10.0941 7.26854 11.6201 7.03969 12.9361 6.67623V10.7416C12.9361 11.3339 12.4321 11.8185 11.8021 11.8185Z" fill="white"/>
</svg>
