<svg width="14" height="11" viewBox="0 0 14 11" fill="none" xmlns="http://www.w3.org/2000/svg">
<line x1="11.6865" y1="9.98539" x2="2.05449" y2="0.35339" stroke="#4F4F4F"/>
<mask id="path-2-inside-1_2509_454" fill="white">
<path d="M13.0911 4.74507C12.9734 4.58406 10.1691 0.802734 6.58737 0.802734C3.00568 0.802734 0.201175 4.58406 0.083604 4.74491C-0.027868 4.89766 -0.027868 5.10483 0.083604 5.25758C0.201175 5.41858 3.00568 9.19991 6.58737 9.19991C10.1691 9.19991 12.9734 5.41856 13.0911 5.2577C13.2028 5.10498 13.2028 4.89766 13.0911 4.74507ZM6.58737 8.33124C3.94907 8.33124 1.66403 5.8215 0.987603 5.00102C1.66315 4.17983 3.94341 1.6714 6.58737 1.6714C9.22554 1.6714 11.5104 4.18071 12.1871 5.00162C11.5116 5.82278 9.23133 8.33124 6.58737 8.33124Z"/>
</mask>
<path d="M13.0911 4.74507C12.9734 4.58406 10.1691 0.802734 6.58737 0.802734C3.00568 0.802734 0.201175 4.58406 0.083604 4.74491C-0.027868 4.89766 -0.027868 5.10483 0.083604 5.25758C0.201175 5.41858 3.00568 9.19991 6.58737 9.19991C10.1691 9.19991 12.9734 5.41856 13.0911 5.2577C13.2028 5.10498 13.2028 4.89766 13.0911 4.74507ZM6.58737 8.33124C3.94907 8.33124 1.66403 5.8215 0.987603 5.00102C1.66315 4.17983 3.94341 1.6714 6.58737 1.6714C9.22554 1.6714 11.5104 4.18071 12.1871 5.00162C11.5116 5.82278 9.23133 8.33124 6.58737 8.33124Z" fill="white"/>
<path d="M13.0911 4.74507L12.2838 5.33521L12.284 5.33548L13.0911 4.74507ZM0.083604 4.74491L-0.723728 4.15481L-0.724166 4.15541L0.083604 4.74491ZM0.083604 5.25758L-0.724166 5.84707L-0.723998 5.8473L0.083604 5.25758ZM13.0911 5.2577L13.8982 5.84822L13.8985 5.8478L13.0911 5.2577ZM0.987603 5.00102L0.215337 4.36573L-0.307855 5.00172L0.216014 5.63715L0.987603 5.00102ZM12.1871 5.00162L12.9594 5.63693L13.4826 5.00097L12.9588 4.36554L12.1871 5.00162ZM13.8984 4.15492C13.8154 4.04138 13.0293 2.9832 11.7768 1.94396C10.5422 0.919527 8.72147 -0.197266 6.58737 -0.197266V1.80273C8.03497 1.80273 9.40724 2.5766 10.4997 3.48309C11.5743 4.37476 12.2491 5.28774 12.2838 5.33521L13.8984 4.15492ZM6.58737 -0.197266C4.45328 -0.197266 2.63249 0.919522 1.39789 1.94393C0.14544 2.98314 -0.640741 4.04128 -0.723728 4.15481L0.890936 5.33501C0.92552 5.28769 1.60038 4.37474 2.675 3.48308C3.76746 2.57661 5.13977 1.80273 6.58737 1.80273V-0.197266ZM-0.724166 4.15541C-1.09194 4.65937 -1.09194 5.34312 -0.724166 5.84707L0.891374 4.66808C1.03621 4.86654 1.03621 5.13595 0.891374 5.33441L-0.724166 4.15541ZM-0.723998 5.8473C-0.640735 5.96133 0.145476 7.01949 1.39788 8.05869C2.63249 9.08312 4.45328 10.1999 6.58737 10.1999V8.19991C5.13977 8.19991 3.76747 7.42603 2.675 6.51955C1.60034 5.62783 0.925514 4.71483 0.891206 4.66785L-0.723998 5.8473ZM6.58737 10.1999C8.72147 10.1999 10.5422 9.08311 11.7768 8.0587C13.0293 7.01943 13.8155 5.96127 13.8982 5.84822L12.2841 4.66719C12.2491 4.71499 11.5742 5.62793 10.4997 6.51955C9.40724 7.42603 8.03497 8.19991 6.58737 8.19991V10.1999ZM13.8985 5.8478C14.2669 5.34377 14.2672 4.65898 13.8982 4.15465L12.284 5.33548C12.1384 5.13633 12.1387 4.8662 12.2838 4.66761L13.8985 5.8478ZM6.58737 7.33124C5.57669 7.33124 4.55566 6.84325 3.64697 6.17022C2.75195 5.50732 2.07033 4.74231 1.75919 4.3649L0.216014 5.63715C0.581294 6.08022 1.38041 6.98031 2.4566 7.7774C3.51911 8.56435 4.95976 9.33124 6.58737 9.33124V7.33124ZM1.75987 5.63632C2.07046 5.25877 2.75051 4.49419 3.64463 3.83178C4.5521 3.15946 5.57345 2.6714 6.58737 2.6714V0.671403C4.95733 0.671403 3.51657 1.43756 2.45404 2.22476C1.37815 3.02185 0.580289 3.92209 0.215337 4.36573L1.75987 5.63632ZM6.58737 2.6714C7.59802 2.6714 8.61899 3.15931 9.52764 3.83227C10.4226 4.49512 11.1043 5.26012 11.4155 5.63769L12.9588 4.36554C12.5933 3.9222 11.7942 3.0221 10.718 2.22506C9.65546 1.43815 8.21489 0.671403 6.58737 0.671403V2.6714ZM11.4149 4.3663C11.1043 4.74386 10.4242 5.50844 9.53012 6.17086C8.62264 6.84318 7.60129 7.33124 6.58737 7.33124V9.33124C8.21741 9.33124 9.65818 8.56507 10.7207 7.77787C11.7966 6.98077 12.5945 6.08054 12.9594 5.63693L11.4149 4.3663Z" fill="#4F4F4F" mask="url(#path-2-inside-1_2509_454)"/>
<mask id="path-4-inside-2_2509_454" fill="white">
<path d="M6.58748 2.39551C5.15054 2.39551 3.98145 3.5646 3.98145 5.00154C3.98145 6.43848 5.15054 7.60757 6.58748 7.60757C8.02442 7.60757 9.19351 6.43848 9.19351 5.00154C9.19351 3.5646 8.02442 2.39551 6.58748 2.39551ZM6.58748 6.73888C5.62947 6.73888 4.85014 5.95952 4.85014 5.00154C4.85014 4.04355 5.62949 3.2642 6.58748 3.2642C7.54546 3.2642 8.32481 4.04355 8.32481 5.00154C8.32481 5.95952 7.54549 6.73888 6.58748 6.73888Z"/>
</mask>
<path d="M6.58748 2.39551C5.15054 2.39551 3.98145 3.5646 3.98145 5.00154C3.98145 6.43848 5.15054 7.60757 6.58748 7.60757C8.02442 7.60757 9.19351 6.43848 9.19351 5.00154C9.19351 3.5646 8.02442 2.39551 6.58748 2.39551ZM6.58748 6.73888C5.62947 6.73888 4.85014 5.95952 4.85014 5.00154C4.85014 4.04355 5.62949 3.2642 6.58748 3.2642C7.54546 3.2642 8.32481 4.04355 8.32481 5.00154C8.32481 5.95952 7.54549 6.73888 6.58748 6.73888Z" fill="white"/>
<path d="M6.58748 1.39551C4.59825 1.39551 2.98145 3.01232 2.98145 5.00154H4.98145C4.98145 4.11688 5.70282 3.39551 6.58748 3.39551V1.39551ZM2.98145 5.00154C2.98145 6.99076 4.59825 8.60757 6.58748 8.60757V6.60757C5.70282 6.60757 4.98145 5.88619 4.98145 5.00154H2.98145ZM6.58748 8.60757C8.5767 8.60757 10.1935 6.99076 10.1935 5.00154H8.19351C8.19351 5.88619 7.47213 6.60757 6.58748 6.60757V8.60757ZM10.1935 5.00154C10.1935 3.01232 8.5767 1.39551 6.58748 1.39551V3.39551C7.47213 3.39551 8.19351 4.11688 8.19351 5.00154H10.1935ZM6.58748 5.73888C6.18176 5.73888 5.85014 5.40725 5.85014 5.00154H3.85014C3.85014 6.5118 5.07717 7.73888 6.58748 7.73888V5.73888ZM5.85014 5.00154C5.85014 4.59584 6.18178 4.2642 6.58748 4.2642V2.2642C5.07721 2.2642 3.85014 3.49127 3.85014 5.00154H5.85014ZM6.58748 4.2642C6.99318 4.2642 7.32481 4.59584 7.32481 5.00154H9.32481C9.32481 3.49127 8.09775 2.2642 6.58748 2.2642V4.2642ZM7.32481 5.00154C7.32481 5.40725 6.99319 5.73888 6.58748 5.73888V7.73888C8.09778 7.73888 9.32481 6.5118 9.32481 5.00154H7.32481Z" fill="#4F4F4F" mask="url(#path-4-inside-2_2509_454)"/>
</svg>
