<svg width="16" height="16" viewBox="0 0 16 16" fill="none" xmlns="http://www.w3.org/2000/svg">
<path d="M8.01571 5.83682L4.63843 9.2141L5.52058 10.0963L7.39193 8.22492V14.4227H8.63949V8.22492L10.5108 10.0963L11.393 9.2141L8.01571 5.83682Z" fill="#F2F2F2"/>
<path d="M13.004 6.0368C12.9302 3.31468 10.6928 1.1228 7.95322 1.1228C6.69466 1.1228 5.48878 1.58843 4.55769 2.43383C3.75541 3.16227 3.21328 4.11999 3.001 5.16915C2.24256 5.33224 1.55028 5.72455 1.01466 6.30196C0.360344 7.00746 0 7.92618 0 8.88887C0 10.987 1.70694 12.6939 3.80506 12.6939C3.81003 12.6939 3.81494 12.6939 3.81853 12.6938H4.46003V11.4462H3.81337L3.8015 11.4464C2.39294 11.4444 1.24756 10.2979 1.24756 8.88887C1.24756 7.56496 2.27978 6.44524 3.59753 6.33977L4.11528 6.29834L4.16831 5.78168C4.36784 3.8369 5.99503 2.37033 7.95322 2.37033C10.0513 2.37033 11.7583 4.07727 11.7583 6.1754V7.26702H12.6628C13.815 7.26702 14.7524 8.20443 14.7524 9.35668C14.7524 10.5089 13.815 11.4463 12.6628 11.4463L11.5711 11.4461V12.6937H12.6424C12.6492 12.6939 12.656 12.694 12.6628 12.694C14.5029 12.694 16 11.1969 16 9.35671C16 7.63168 14.6845 6.20818 13.004 6.0368Z" fill="#F2F2F2"/>
</svg>
