<svg width="14" height="14" viewBox="0 0 14 14" fill="none" xmlns="http://www.w3.org/2000/svg">
<g clip-path="url(#clip0_2145_1045)">
<path d="M12.8793 9.83406C12.2152 9.44968 11.4059 9.55281 10.8605 10.0341L10.0324 9.55437V7.18406C10.0324 6.93875 9.90117 6.71062 9.68867 6.58875L7.56367 5.36531V4.31687C8.2543 4.0825 8.75117 3.42937 8.75117 2.65906C8.75117 1.69187 7.96836 0.909058 7.00117 0.909058C6.03398 0.909058 5.25117 1.69187 5.25117 2.65906C5.25117 3.42937 5.74805 4.0825 6.43867 4.31687V5.36531L4.31367 6.58875C4.10117 6.71062 3.96992 6.93875 3.96992 7.18406V9.55281L3.1418 10.0325C2.59648 9.55125 1.78555 9.44812 1.12305 9.8325C0.287109 10.3169 0.00273451 11.3856 0.482422 12.2216C0.963672 13.0575 2.02773 13.345 2.86055 12.8622C3.52461 12.4778 3.84024 11.7216 3.69805 11.0059L4.45898 10.5637L6.65586 11.8294C6.76211 11.8903 6.88086 11.9216 6.99961 11.9216C7.11836 11.9216 7.23711 11.8903 7.34336 11.8294L9.53867 10.5653L10.2996 11.0075C10.1574 11.7216 10.4746 12.4794 11.1371 12.8637C11.9699 13.3466 13.0355 13.0606 13.5152 12.2231C13.9965 11.3856 13.7121 10.3169 12.8793 9.83406V9.83406ZM2.36367 11.9966C2.2788 12.0457 2.18505 12.0776 2.08781 12.0904C1.99057 12.1032 1.89177 12.0966 1.79708 12.071C1.7024 12.0455 1.6137 12.0014 1.5361 11.9414C1.4585 11.8815 1.39353 11.8067 1.34492 11.7216C1.13867 11.3637 1.26055 10.9044 1.61836 10.6981C1.70323 10.649 1.79698 10.6171 1.89422 10.6043C1.99146 10.5915 2.09026 10.5981 2.18495 10.6237C2.27964 10.6492 2.36833 10.6933 2.44593 10.7532C2.52353 10.8132 2.5885 10.8879 2.63711 10.9731C2.84336 11.3309 2.72148 11.7903 2.36367 11.9966ZM6.24961 2.65906C6.25362 2.4628 6.33439 2.27592 6.47461 2.13854C6.61483 2.00116 6.80331 1.92421 6.99961 1.92421C7.19591 1.92421 7.38439 2.00116 7.52461 2.13854C7.66483 2.27592 7.7456 2.4628 7.74961 2.65906C7.7456 2.85532 7.66483 3.04219 7.52461 3.17957C7.38439 3.31696 7.19591 3.3939 6.99961 3.3939C6.80331 3.3939 6.61483 3.31696 6.47461 3.17957C6.33439 3.04219 6.25362 2.85532 6.24961 2.65906V2.65906ZM8.90586 9.63093L6.99961 10.7294L5.09336 9.63093V7.43718L6.99961 6.33875L8.90586 7.43718V9.63093V9.63093ZM12.6543 11.7231C12.448 12.0809 11.9918 12.2044 11.6355 11.9981C11.2793 11.7919 11.1559 11.3325 11.3621 10.9747C11.5684 10.6169 12.0246 10.4934 12.3809 10.6997C12.7387 10.9059 12.8605 11.3637 12.6543 11.7231Z" fill="white"/>
</g>
<defs>
<clipPath id="clip0_2145_1045">
<rect width="14" height="14" fill="white"/>
</clipPath>
</defs>
</svg>
