<svg width="12" height="8" viewBox="0 0 12 8" fill="none" xmlns="http://www.w3.org/2000/svg">
<path d="M11.6884 4.02555C11.7893 3.9186 11.846 3.77355 11.846 3.62231C11.846 3.47107 11.7893 3.32602 11.6884 3.21908L8.99597 0.367142H8.99606C8.85931 0.227254 8.66297 0.174071 8.47962 0.22735C8.29618 0.280631 8.15295 0.432358 8.10264 0.626576C8.05243 0.82089 8.10255 1.02876 8.2347 1.17362L10.0078 3.05193H0.538454C0.346087 3.05193 0.168323 3.16059 0.0721385 3.33705C-0.0240462 3.51351 -0.0240462 3.73102 0.0721385 3.90748C0.168323 4.08394 0.346084 4.1926 0.538454 4.1926H10.0078L8.2347 6.07082V6.07091C8.10255 6.21577 8.05243 6.42365 8.10264 6.61796C8.15294 6.81217 8.29618 6.96389 8.47962 7.01718C8.66298 7.07046 8.85931 7.01728 8.99606 6.87739L11.6884 4.02555Z" fill="#0F75BC"/>
</svg>
