<svg width="15" height="15" viewBox="0 0 15 15" fill="none" xmlns="http://www.w3.org/2000/svg">
<path d="M7.86121 6.85516H7.76121V6.95516V14V14.1H7.86121H14H14.1V14V6.95516V6.85516H14H7.86121ZM1 8.81603H0.9V8.91603V14V14.1H1H7.13879H7.23879V14V8.91603V8.81603H7.13879H1ZM7.23879 1V0.9H7.13879H1H0.9V1V8.04453V8.14453H1H7.13879H7.23879V8.04453V1ZM14.1 1V0.9H14H7.86121H7.76121V1V6.08365V6.18365H7.86121H14H14.1V6.08365V1ZM13.4667 13.4642H8.39455V7.49091H13.4667V13.4642ZM6.60545 13.4642H1.53333V9.45178H6.60545V13.4642ZM1.53333 7.50878V1.53575H6.60545V7.50878H1.53333ZM8.39455 5.5479V1.53575H13.4667V5.5479H8.39455Z" fill="white" stroke="white" stroke-width="0.2"/>
</svg>
