<svg width="24" height="24" viewBox="0 0 24 24" fill="none" xmlns="http://www.w3.org/2000/svg">
<rect opacity="0.2" width="24" height="24" fill="#BDBDBD"/>
<path d="M14.5593 18.1914C15.7669 18.1914 16.7361 17.2205 16.7838 15.9696L17.038 7.83982H18.2297C18.4045 7.83982 18.5475 7.69173 18.5475 7.51071C18.5475 7.32968 18.4045 7.18159 18.2297 7.18159H14.8929V6.44105C14.8929 5.71691 14.3209 5.12445 13.6217 5.12445H11.2066C10.5074 5.12445 9.93537 5.71691 9.93537 6.44105V7.18159H6.58266C6.40787 7.18159 6.26489 7.32968 6.26489 7.51071C6.26489 7.69173 6.40787 7.83982 6.58266 7.83982H7.77438L8.02864 15.9696C8.0763 17.2204 9.04558 18.1914 10.2531 18.1914H14.5593ZM10.571 6.44102C10.571 6.07897 10.8569 5.7828 11.2065 5.7828H13.6217C13.9713 5.7828 14.2573 6.07897 14.2573 6.44102V7.18156H10.5709L10.571 6.44102ZM8.68007 15.9368L8.42581 7.82342H16.4183L16.1483 15.9368C16.1165 16.8254 15.4173 17.5331 14.5593 17.5331H10.2691C9.41103 17.5331 8.71186 16.8418 8.68005 15.9368H8.68007Z" fill="#F52D2D"/>
<path d="M12.4142 15.426C12.589 15.426 12.732 15.2779 12.732 15.0969V10.1762C12.732 9.99519 12.589 9.84711 12.4142 9.84711C12.2394 9.84711 12.0964 9.99519 12.0964 10.1762V15.0969C12.0964 15.2778 12.2394 15.4259 12.4142 15.4259V15.426Z" fill="#F52D2D"/>
<path d="M10.5072 15.426C10.682 15.426 10.825 15.2779 10.825 15.0969V10.1762C10.825 9.99519 10.682 9.84711 10.5072 9.84711C10.3324 9.84711 10.1895 9.99519 10.1895 10.1762V15.0969C10.1895 15.2778 10.3324 15.4259 10.5072 15.4259V15.426Z" fill="#F52D2D"/>
<path d="M14.3212 15.426C14.496 15.426 14.6389 15.2779 14.6389 15.0969V10.1762C14.6389 9.99519 14.496 9.84711 14.3212 9.84711C14.1464 9.84711 14.0034 9.99519 14.0034 10.1762V15.0969C14.0034 15.2778 14.1464 15.4259 14.3212 15.4259V15.426Z" fill="#F52D2D"/>
</svg>
