<svg width="18" height="18" viewBox="0 0 18 18" fill="none" xmlns="http://www.w3.org/2000/svg">
<g clip-path="url(#clip0)">
<path d="M16.5 3.75004H12.75V3.00001C12.75 2.17275 12.0773 1.5 11.25 1.5H6.75C5.92274 1.5 5.24999 2.17271 5.24999 3.00001V3.75H1.50001C0.672715 3.75004 0 4.42275 0 5.25001V15C0 15.8273 0.672715 16.5 1.50001 16.5H16.5C17.3273 16.5 18 15.8273 18 15V5.25001C18 4.42275 17.3273 3.75004 16.5 3.75004ZM6.00001 3.00001C6.00001 2.58657 6.33656 2.25002 6.75 2.25002H11.25C11.6634 2.25002 12 2.58657 12 3.00001V3.75H6.00001V3.00001ZM17.25 15C17.25 15.4135 16.9135 15.75 16.5 15.75H1.50001C1.08657 15.75 0.750023 15.4135 0.750023 15V9.54143C0.971543 9.67059 1.22558 9.75005 1.50001 9.75005H7.50002V10.875C7.50002 11.0823 7.66775 11.2501 7.87504 11.2501H10.125C10.3323 11.2501 10.5 11.0823 10.5 10.875V9.75005H16.5001C16.7745 9.75005 17.0286 9.67063 17.25 9.54143V15H17.25ZM8.25001 10.5V9.00002H9.75002V10.5H8.25001ZM17.25 8.25004C17.25 8.66347 16.9135 9.00002 16.5 9.00002H10.5V8.62501C10.5 8.41773 10.3323 8.25 10.125 8.25H7.875C7.66772 8.25 7.49999 8.41773 7.49999 8.62501V9.00002H1.50001C1.08657 9.00002 0.750023 8.66347 0.750023 8.25004V5.25005C0.750023 4.83661 1.08657 4.50006 1.50001 4.50006H16.5C16.9135 4.50006 17.25 4.83661 17.25 5.25005V8.25004Z" fill="black"/>
</g>
<defs>
<clipPath id="clip0">
<rect width="18" height="18" fill="white"/>
</clipPath>
</defs>
</svg>
