<svg width="13" height="13" viewBox="0 0 13 13" fill="none" xmlns="http://www.w3.org/2000/svg">
<g clip-path="url(#clip0_2145_1032)">
<path d="M12.5357 5.51158H10.9687V3.86336C10.9687 3.60656 10.7613 3.39908 10.5045 3.39908H5.93415L4.23225 1.77118C4.2106 1.75091 4.18212 1.73951 4.15246 1.73926H0.464286C0.207478 1.73926 0 1.94674 0 2.20354V10.7928C0 11.0496 0.207478 11.2571 0.464286 11.2571H10.5915C10.7801 11.2571 10.9513 11.1425 11.0224 10.9669L12.9666 6.14997C12.9884 6.09484 13 6.03535 13 5.97587C13 5.71906 12.7925 5.51158 12.5357 5.51158ZM1.04464 2.7839H3.77958L5.51484 4.44372H9.92411V5.51158H2.52455C2.33594 5.51158 2.16473 5.6262 2.09364 5.80176L1.04464 8.40176V2.7839ZM10.2622 10.2125H1.37835L2.87712 6.49819H11.7624L10.2622 10.2125Z" fill="#0F75BC"/>
</g>
<defs>
<clipPath id="clip0_2145_1032">
<rect width="13" height="13" fill="white"/>
</clipPath>
</defs>
</svg>
