<svg width="12" height="12" viewBox="0 0 12 12" fill="none" xmlns="http://www.w3.org/2000/svg">
<g clip-path="url(#clip0_2145_1044)">
<path d="M6 0C2.68661 0 0 2.68661 0 6C0 9.31339 2.68661 12 6 12C9.31339 12 12 9.31339 12 6C12 2.68661 9.31339 0 6 0ZM6 10.9821C3.24911 10.9821 1.01786 8.75089 1.01786 6C1.01786 3.24911 3.24911 1.01786 6 1.01786C8.75089 1.01786 10.9821 3.24911 10.9821 6C10.9821 8.75089 8.75089 10.9821 6 10.9821ZM6.63884 5.68929L6.29866 5.61027V3.81161C6.80759 3.88125 7.12232 4.2 7.17589 4.59107C7.18259 4.64464 7.22813 4.68348 7.2817 4.68348H7.88304C7.94598 4.68348 7.99554 4.62857 7.99018 4.56562C7.90848 3.73125 7.22143 3.19554 6.30402 3.10313V2.66518C6.30402 2.60625 6.2558 2.55804 6.19688 2.55804H5.82054C5.76161 2.55804 5.71339 2.60625 5.71339 2.66518V3.10714C4.76518 3.19955 4.02321 3.72321 4.02321 4.70089C4.02321 5.60625 4.69018 6.04286 5.39063 6.21027L5.72143 6.29464V8.2058C5.12946 8.12679 4.79732 7.81071 4.72902 7.38482C4.72098 7.33393 4.67545 7.29643 4.62321 7.29643H4.00446C3.94152 7.29643 3.89196 7.35 3.89732 7.41295C3.95759 8.14955 4.51607 8.82723 5.70804 8.91429V9.33482C5.70804 9.39375 5.75625 9.44196 5.81518 9.44196H6.19554C6.25446 9.44196 6.30268 9.39375 6.30268 9.33348L6.3 8.90893C7.34866 8.81652 8.09866 8.25536 8.09866 7.24821C8.09732 6.31875 7.5067 5.90357 6.63884 5.68929V5.68929ZM5.72009 5.47232C5.64509 5.45089 5.58214 5.4308 5.5192 5.40536C5.06652 5.24196 4.85625 4.97812 4.85625 4.63795C4.85625 4.15179 5.22455 3.87455 5.72009 3.81161V5.47232ZM6.29866 8.20982V6.4192C6.34018 6.43125 6.37768 6.44063 6.41652 6.44866C7.05 6.64152 7.26295 6.90937 7.26295 7.32054C7.26295 7.8442 6.8692 8.15893 6.29866 8.20982Z" fill="white"/>
</g>
<defs>
<clipPath id="clip0_2145_1044">
<rect width="12" height="12" fill="white"/>
</clipPath>
</defs>
</svg>
