<svg width="1307" height="1307" viewBox="0 0 1307 1307" fill="none" xmlns="http://www.w3.org/2000/svg">
<g clip-path="url(#clip0_1649_608)">
<path d="M608 1.46697C476.267 11.067 349.2 60.4003 248 141.067C203.6 176.4 159.6 222 127.2 266.134C18.4 413.734 -23.3334 601.467 12.8 781.334C33.0666 883.067 77.6 979.067 141.067 1058.67C176.533 1103.07 222 1147.07 266.267 1179.6C489.867 1344.4 795.867 1349.07 1024 1191.2C1082.27 1150.93 1136.67 1098.27 1178.93 1041.33C1311.73 862.534 1343.33 624.534 1262 416C1228 328.667 1178 253.467 1109.2 186C1058.4 136.134 1004.8 98.1336 942 67.3336C870.267 32.1336 800.533 12.0003 720 3.33364C696.8 0.800306 631.467 -0.266361 608 1.46697ZM691.333 96.0003C875.6 109.334 1037.33 208.8 1133.07 367.6C1234.93 536.667 1238.13 752.134 1141.47 924.667C1020.53 1140.27 775.067 1251.47 535.467 1199.2C368.533 1162.8 227.067 1052.27 152.133 899.334C36.4 663.467 99.6 382.134 305.333 216.667C369.867 164.8 449.6 126.667 532 108C581.733 96.8003 640.933 92.4003 691.333 96.0003Z" fill="#007EBF"/>
<path d="M419.467 519.334C372.267 529.2 342.933 579.2 357.333 625.467C363.333 644.8 362 643.467 482.667 764.4C544.667 826.534 598.4 879.734 602 882.667C617.067 894.4 633.867 900 653.6 900C668.533 900 678.533 897.734 692 891.067C701.6 886.4 706.267 881.867 820.133 768.134L938.4 650L943.867 638.667C960.267 604.934 954.533 567.867 928.8 542.267C900.8 514.134 858.533 509.467 825.2 530.8C819.2 534.667 792.133 560.8 735.067 617.734L653.333 699.2L569.733 615.867C493.733 540.134 485.2 532 476.667 527.734C471.6 525.067 464 522 460 520.8C449.6 517.734 430.667 516.934 419.467 519.334Z" fill="#007EBF"/>
</g>
<defs>
<clipPath id="clip0_1649_608">
<rect width="1306.67" height="1306.67" fill="white"/>
</clipPath>
</defs>
</svg>
