<svg width="13" height="14" viewBox="0 0 13 14" fill="none" xmlns="http://www.w3.org/2000/svg">
<g clip-path="url(#clip0_2978_5618)">
<path d="M12.8264 3.50938L8.85256 0.146875C8.74176 0.053125 8.59219 0 8.43523 0H0.590909C0.264062 0 0 0.223437 0 0.5V13.5C0 13.7766 0.264062 14 0.590909 14H12.4091C12.7359 14 13 13.7766 13 13.5V3.86406C13 3.73125 12.9372 3.60313 12.8264 3.50938ZM12 4.11765H8.5V0.823529L12 4.11765ZM11.8534 13.1765H1.14749V0.823529H7.47369V4.52941C7.47369 4.94118 6.98706 4.94118 6.98706 4.94118C6.98706 4.94118 7.268 4.94118 7.47369 4.94118H11.8534V13.1765ZM6.35227 8.65625H2.95455C2.8733 8.65625 2.80682 8.7125 2.80682 8.78125V9.53125C2.80682 9.6 2.8733 9.65625 2.95455 9.65625H6.35227C6.43352 9.65625 6.5 9.6 6.5 9.53125V8.78125C6.5 8.7125 6.43352 8.65625 6.35227 8.65625ZM2.80682 6.65625V7.40625C2.80682 7.475 2.8733 7.53125 2.95455 7.53125H10.0455C10.1267 7.53125 10.1932 7.475 10.1932 7.40625V6.65625C10.1932 6.5875 10.1267 6.53125 10.0455 6.53125H2.95455C2.8733 6.53125 2.80682 6.5875 2.80682 6.65625Z" fill="#0F75BC"/>
</g>
<defs>
<clipPath id="clip0_2978_5618">
<rect width="13" height="14" fill="white"/>
</clipPath>
</defs>
</svg>
