<svg width="24" height="24" viewBox="0 0 24 24" fill="none" xmlns="http://www.w3.org/2000/svg">
<g clip-path="url(#clip0_5263_3577)">
<path opacity="0.2" d="M24 0H0V24H24V0Z" fill="#BDBDBD"/>
<path d="M12.9527 7.27452H13.0527L13.0527 7.17453L13.0528 6.47529L13.0528 6.37528H12.9528H8.02621C7.00256 6.37528 6.16685 7.18581 6.16685 8.20755V16.6044C6.16685 17.6236 7.00001 18.4708 8.02621 18.4708H16.4713C17.4975 18.4708 18.3307 17.623 18.3307 16.6044V11.7231V11.6231H18.2307H17.5267H17.4267V11.7231V16.6044V16.6473C17.4042 17.1537 16.9832 17.5719 16.4722 17.5719H8.02621C7.50075 17.5719 7.07075 17.13 7.07075 16.6046L7.07065 8.20687C7.07065 7.68576 7.49639 7.27452 8.0261 7.27452H12.9527Z" fill="#2A3C50" stroke="#2A3C50" stroke-width="0.2"/>
<path d="M16.2595 6.2979L16.2595 6.2979L11.5166 11.2251L11.4196 11.2007L11.4196 11.2008C11.4195 11.2008 11.4195 11.2009 11.4195 11.2009L10.9227 13.1794L10.9227 13.1795C10.8843 13.3327 10.9297 13.4948 11.0413 13.6069L11.0417 13.6073C11.1274 13.6925 11.2428 13.7389 11.3607 13.7389C11.397 13.7389 11.4337 13.7346 11.4704 13.7253C11.4704 13.7253 11.4705 13.7253 11.4706 13.7252L13.4604 13.2307C13.4604 13.2306 13.4605 13.2306 13.4606 13.2306C13.5409 13.211 13.6131 13.1695 13.6704 13.1124L18.3914 8.41845C18.6759 8.13561 18.8333 7.75853 18.8333 7.35785C18.8333 6.95731 18.6764 6.58082 18.3912 6.29783C17.8207 5.73003 16.8306 5.73014 16.2595 6.2979ZM17.7526 7.78152L17.7526 7.78154L17.5746 7.95853L16.7211 7.10985L16.8982 6.93369C16.8982 6.93368 16.8982 6.93368 16.8982 6.93367C17.1249 6.70833 17.5259 6.70833 17.7526 6.93367C17.8667 7.04714 17.9293 7.19714 17.9293 7.3576C17.9293 7.51819 17.8667 7.6682 17.7526 7.78152ZM16.9353 8.59526L13.1206 12.3879L11.9821 12.6709L12.2665 11.54L16.0817 7.74656L16.9353 8.59526Z" fill="#2A3C50" stroke="#2A3C50" stroke-width="0.2"/>
</g>
<defs>
<clipPath id="clip0_5263_3577">
<rect width="24" height="24" fill="white"/>
</clipPath>
</defs>
</svg>
