<svg width="17" height="16" viewBox="0 0 17 16" fill="none" xmlns="http://www.w3.org/2000/svg">
<path d="M5.6665 10C7.46143 10 8.9165 8.54493 8.9165 6.75C8.9165 4.95507 7.46143 3.5 5.6665 3.5C3.87158 3.5 2.4165 4.95507 2.4165 6.75C2.4165 8.54493 3.87158 10 5.6665 10Z" stroke="#333333" stroke-miterlimit="10"/>
<path d="M9.87891 3.61875C10.1662 3.54083 10.4625 3.50091 10.7602 3.5C11.6221 3.5 12.4488 3.84241 13.0583 4.4519C13.6677 5.0614 14.0102 5.88805 14.0102 6.75C14.0102 7.61195 13.6677 8.4386 13.0583 9.0481C12.4488 9.65759 11.6221 10 10.7602 10" stroke="#333333" stroke-linecap="round" stroke-linejoin="round"/>
<path d="M1.1665 12.3375C1.67397 11.6154 2.34778 11.026 3.13101 10.6191C3.91424 10.2122 4.78389 9.99978 5.6665 9.99978C6.54912 9.99978 7.41877 10.2122 8.202 10.6191C8.98523 11.026 9.65904 11.6154 10.1665 12.3375" stroke="#333333" stroke-linecap="round" stroke-linejoin="round"/>
<path d="M10.7603 10C11.6429 9.99945 12.5128 10.2116 13.2961 10.6185C14.0794 11.0254 14.7531 11.615 15.2603 12.3375" stroke="#333333" stroke-linecap="round" stroke-linejoin="round"/>
</svg>
