<svg width="15" height="15" viewBox="0 0 15 15" fill="none" xmlns="http://www.w3.org/2000/svg">
<g clip-path="url(#clip0_2145_1040)">
<path d="M12.7269 10.648C12.3078 10.2286 11.8182 9.88636 11.2804 9.63685C12.0388 9.02245 12.5226 8.08495 12.5226 7.03361C12.5226 5.1787 10.9758 3.65694 9.12084 3.6854C7.29439 3.71386 5.82285 5.20214 5.82285 7.03361C5.82285 8.08495 6.30834 9.02245 7.06504 9.63685C6.52716 9.88618 6.0375 10.2285 5.61861 10.648C4.70454 11.5637 4.18557 12.7725 4.15209 14.0615C4.15164 14.0794 4.15478 14.0972 4.16131 14.1138C4.16784 14.1304 4.17763 14.1456 4.19011 14.1584C4.20259 14.1712 4.21751 14.1813 4.23398 14.1883C4.25045 14.1952 4.26814 14.1988 4.28602 14.1988H5.22352C5.2955 14.1988 5.35577 14.1419 5.35745 14.0699C5.38925 13.0989 5.78267 12.1899 6.47408 11.5001C6.82788 11.1444 7.24872 10.8625 7.71223 10.6705C8.17574 10.4785 8.67273 10.3804 9.17441 10.3818C10.1939 10.3818 11.1532 10.7786 11.8747 11.5001C12.5645 12.1899 12.9579 13.0989 12.9914 14.0699C12.993 14.1419 13.0533 14.1988 13.1253 14.1988H14.0628C14.0807 14.1988 14.0984 14.1952 14.1148 14.1883C14.1313 14.1813 14.1462 14.1712 14.1587 14.1584C14.1712 14.1456 14.181 14.1304 14.1875 14.1138C14.194 14.0972 14.1972 14.0794 14.1967 14.0615C14.1633 12.7725 13.6443 11.5637 12.7269 10.648ZM9.17441 9.17647C8.60187 9.17647 8.0628 8.95381 7.65934 8.54868C7.45687 8.3478 7.29693 8.10819 7.18907 7.84415C7.08121 7.58011 7.02764 7.29705 7.03155 7.01185C7.03658 6.46274 7.25588 5.93205 7.63925 5.53864C8.04104 5.12681 8.57843 4.89745 9.15265 4.89076C9.72017 4.88573 10.271 5.10672 10.6761 5.50348C11.0913 5.91029 11.3189 6.45437 11.3189 7.03361C11.3189 7.60616 11.0963 8.14355 10.6912 8.54868C10.4924 8.74839 10.256 8.90671 9.99565 9.01447C9.73531 9.12223 9.45618 9.17729 9.17441 9.17647ZM4.98077 7.47558C4.96571 7.32993 4.95734 7.18261 4.95734 7.03361C4.95734 6.76743 4.98245 6.50794 5.02932 6.25515C5.04104 6.19489 5.00923 6.13294 4.95399 6.10783C4.72631 6.00571 4.51704 5.86509 4.33624 5.68763C4.12319 5.48106 3.95555 5.23234 3.844 4.95736C3.73244 4.68237 3.67944 4.38715 3.68836 4.09053C3.70343 3.55315 3.91939 3.04254 4.29606 2.6575C4.70957 2.23395 5.26537 2.00292 5.85633 2.00962C6.39037 2.01464 6.906 2.22056 7.29606 2.58551C7.42832 2.70939 7.54216 2.84667 7.63758 2.99399C7.67106 3.04589 7.73635 3.06765 7.79327 3.04756C8.08792 2.94544 8.3993 2.87346 8.71905 2.83998C8.8128 2.82993 8.86638 2.72948 8.82452 2.64578C8.28044 1.56933 7.16883 0.826024 5.88312 0.805935C4.02653 0.777475 2.47966 2.29924 2.47966 4.15248C2.47966 5.20381 2.96347 6.14131 3.72184 6.75571C3.18948 7.00181 2.69896 7.34165 2.27374 7.76687C1.35633 8.68261 0.837357 9.89131 0.803875 11.1821C0.803428 11.1999 0.806562 11.2177 0.813092 11.2343C0.819622 11.251 0.829417 11.2661 0.841898 11.2789C0.854379 11.2917 0.869295 11.3019 0.885766 11.3088C0.902237 11.3158 0.91993 11.3193 0.937803 11.3193H1.87698C1.94896 11.3193 2.00923 11.2624 2.01091 11.1904C2.04271 10.2194 2.43613 9.3104 3.12754 8.62067C3.61972 8.12848 4.2224 7.78696 4.88033 7.62123C4.94562 7.60448 4.98914 7.54254 4.98077 7.47558V7.47558Z" fill="white"/>
</g>
<defs>
<clipPath id="clip0_2145_1040">
<rect width="15" height="15" fill="white"/>
</clipPath>
</defs>
</svg>
