<svg width="121" height="173" viewBox="0 0 121 173" fill="none" xmlns="http://www.w3.org/2000/svg">
<g clip-path="url(#clip0_2480_12215)">
<path d="M31.5954 164.694C31.3703 164.705 31.1474 164.646 30.957 164.525C30.7665 164.404 30.6178 164.228 30.5308 164.02C30.4439 163.811 30.4229 163.581 30.4709 163.361C30.5188 163.14 30.6333 162.94 30.7988 162.787C30.8265 162.677 30.8464 162.597 30.8741 162.487C30.8642 162.463 30.8542 162.439 30.8442 162.415C30.6173 161.879 30.2373 161.421 29.7517 161.101C29.2661 160.78 28.6967 160.61 28.1149 160.612C27.5331 160.614 26.9649 160.788 26.4817 161.113C25.9985 161.437 25.6219 161.897 25.3991 162.435C24.5085 164.583 23.3746 166.734 23.0954 169.005C22.9725 170.008 23.0243 171.026 23.2487 172.012C21.157 167.443 20.0708 162.478 20.0638 157.453C20.0634 156.192 20.1334 154.932 20.2734 153.678C20.3892 152.651 20.5498 151.631 20.7553 150.618C21.8764 145.123 24.2835 139.972 27.7789 135.589C29.4706 134.665 30.8388 133.244 31.6989 131.517C32.0105 130.897 32.2308 130.234 32.3528 129.55C32.162 129.575 31.968 129.591 31.7772 129.604C31.7177 129.607 31.6551 129.61 31.5957 129.613L31.5733 129.614C31.3635 129.623 31.1555 129.572 30.9743 129.466C30.7931 129.36 30.6465 129.203 30.552 129.016C30.4574 128.828 30.4191 128.617 30.4416 128.408C30.4642 128.199 30.5465 128.001 30.6788 127.838C30.7612 127.736 30.8437 127.635 30.9262 127.533C31.0513 127.376 31.1796 127.223 31.3047 127.066C31.3192 127.052 31.3328 127.036 31.3454 127.019C31.4893 126.841 31.6332 126.665 31.7772 126.487C31.5145 126.079 31.1611 125.737 30.7447 125.488C29.3025 124.642 27.3127 125.228 26.2709 126.534C25.2259 127.84 25.0289 129.672 25.3918 131.304C25.7486 132.693 26.339 134.011 27.1375 135.201C27.0593 135.301 26.9779 135.398 26.8997 135.499C25.47 137.339 24.2238 139.316 23.1792 141.4C23.4332 139.065 23.13 136.703 22.2945 134.509C21.4477 132.463 19.8605 130.741 18.4628 128.973C16.7839 126.849 13.3413 127.776 13.0455 130.468C13.0426 130.494 13.0398 130.52 13.0371 130.546C13.2447 130.664 13.4479 130.788 13.6468 130.92C13.8965 131.087 14.0901 131.326 14.202 131.605C14.314 131.884 14.3391 132.19 14.2741 132.484C14.2092 132.778 14.0571 133.045 13.8379 133.25C13.6187 133.456 13.3425 133.591 13.0456 133.636L13.0152 133.641C13.0892 134.39 13.2199 135.133 13.4063 135.862C13.9463 137.898 14.9006 139.8 16.2094 141.449C17.5181 143.099 19.1531 144.46 21.0118 145.447C21.1338 145.509 21.2527 145.572 21.3747 145.631C20.3252 148.609 19.6668 151.711 19.4162 154.859C19.2744 156.716 19.2828 158.582 19.4413 160.438L19.4319 160.372C19.0314 158.308 17.9319 156.446 16.319 155.1C13.9234 153.13 10.5389 152.405 7.95452 150.821C7.67986 150.644 7.3605 150.55 7.03411 150.549C6.70771 150.549 6.3879 150.641 6.11238 150.816C5.83686 150.992 5.61714 151.242 5.47913 151.538C5.34111 151.834 5.29056 152.164 5.33343 152.488C5.3369 152.511 5.34042 152.534 5.344 152.557C5.72925 152.714 6.10436 152.895 6.46714 153.099C6.67474 153.216 6.87796 153.341 7.0768 153.472C7.32659 153.639 7.52015 153.878 7.6321 154.157C7.74405 154.436 7.76918 154.743 7.7042 155.036C7.63922 155.33 7.48716 155.597 7.26794 155.803C7.04872 156.008 6.77257 156.143 6.47566 156.189L6.44523 156.193C6.42333 156.197 6.40456 156.2 6.3827 156.203C7.04096 157.777 7.96485 159.225 9.1139 160.485C10.5334 162.01 12.249 163.228 14.1556 164.066C16.0621 164.903 18.1195 165.342 20.2015 165.355H20.2046C20.7698 167.814 21.5887 170.208 22.6481 172.497H31.3767C31.408 172.4 31.4362 172.3 31.4643 172.203C30.6564 172.253 29.8453 172.205 29.0491 172.059C29.6967 171.263 30.3443 170.461 30.9919 169.665C31.0063 169.651 31.0199 169.635 31.0326 169.618C31.3611 169.211 31.6927 168.807 32.0212 168.4L32.0214 168.4C32.0389 167.151 31.8958 165.906 31.5957 164.695L31.5954 164.694Z" fill="#E6E6E6"/>
<path d="M97.8889 164.007C97.6637 164.017 97.4409 163.958 97.2504 163.837C97.06 163.716 96.9112 163.54 96.8243 163.332C96.7373 163.124 96.7164 162.894 96.7643 162.673C96.8123 162.453 96.9267 162.252 97.0922 162.099C97.12 161.989 97.1398 161.91 97.1676 161.799C97.1576 161.775 97.1477 161.751 97.1376 161.727C96.9108 161.191 96.5307 160.734 96.0451 160.413C95.5596 160.092 94.9901 159.922 94.4083 159.924C93.8266 159.926 93.2584 160.101 92.7752 160.425C92.292 160.749 91.9153 161.21 91.6925 161.748C90.8019 163.895 89.6681 166.046 89.3889 168.317C89.2659 169.321 89.3178 170.338 89.5422 171.324C87.4505 166.756 86.3643 161.79 86.3573 156.765C86.3569 155.504 86.4268 154.244 86.5669 152.991C86.6827 151.963 86.8433 150.943 87.0487 149.93C88.1698 144.435 90.5769 139.285 94.0723 134.902C95.7641 133.977 97.1322 132.556 97.9924 130.83C98.304 130.209 98.5242 129.546 98.6463 128.863C98.4554 128.888 98.2615 128.903 98.0706 128.916C98.0112 128.919 97.9486 128.922 97.8892 128.925L97.8667 128.926C97.657 128.936 97.449 128.884 97.2678 128.778C97.0866 128.672 96.9399 128.515 96.8454 128.328C96.7509 128.14 96.7126 127.929 96.7351 127.72C96.7576 127.511 96.84 127.313 96.9723 127.15C97.0547 127.048 97.1371 126.947 97.2196 126.845C97.3448 126.689 97.473 126.535 97.5982 126.379C97.6126 126.364 97.6262 126.348 97.6388 126.332C97.7828 126.153 97.9267 125.978 98.0706 125.799C97.8079 125.391 97.4546 125.049 97.0382 124.8C95.5959 123.954 93.6061 124.54 92.5643 125.846C91.5194 127.152 91.3223 128.985 91.6852 130.617C92.0421 132.005 92.6324 133.323 93.431 134.513C93.3527 134.613 93.2714 134.711 93.1932 134.811C91.7634 136.651 90.5173 138.628 89.4726 140.712C89.7267 138.377 89.4234 136.016 88.5879 133.821C87.7411 131.776 86.154 130.053 84.7563 128.285C83.0774 126.161 79.6347 127.088 79.3389 129.78C79.3361 129.807 79.3333 129.833 79.3305 129.859C79.5381 129.976 79.7414 130.1 79.9402 130.232C80.19 130.399 80.3835 130.638 80.4955 130.917C80.6074 131.196 80.6326 131.503 80.5676 131.796C80.5026 132.09 80.3505 132.357 80.1313 132.563C79.9121 132.768 79.636 132.903 79.3391 132.949L79.3086 132.953C79.3826 133.702 79.5133 134.445 79.6997 135.174C80.2398 137.21 81.1941 139.112 82.5028 140.762C83.8116 142.411 85.4466 143.772 87.3052 144.759C87.4273 144.822 87.5462 144.884 87.6682 144.944C86.6186 147.922 85.9603 151.024 85.7097 154.171C85.5678 156.029 85.5762 157.894 85.7347 159.75L85.7253 159.684C85.3249 157.621 84.2253 155.759 82.6124 154.413C80.2169 152.442 76.8324 151.717 74.248 150.133C73.9733 149.957 73.654 149.862 73.3276 149.862C73.0012 149.861 72.6814 149.953 72.4058 150.129C72.1303 150.304 71.9106 150.554 71.7726 150.85C71.6346 151.147 71.584 151.476 71.6269 151.8C71.6304 151.823 71.6339 151.846 71.6375 151.869C72.0227 152.026 72.3978 152.207 72.7606 152.411C72.9682 152.528 73.1714 152.653 73.3703 152.784C73.6201 152.952 73.8136 153.19 73.9255 153.469C74.0375 153.748 74.0626 154.055 73.9977 154.349C73.9327 154.642 73.7806 154.909 73.5614 155.115C73.3422 155.321 73.066 155.455 72.7691 155.501L72.7387 155.506C72.7168 155.509 72.698 155.512 72.6761 155.515C73.3344 157.089 74.2583 158.537 75.4074 159.797C76.8268 161.322 78.5424 162.541 80.449 163.378C82.3556 164.216 84.413 164.655 86.495 164.668H86.4981C87.0633 167.127 87.8821 169.52 88.9415 171.809H97.6702C97.7015 171.712 97.7296 171.612 97.7578 171.515C96.9498 171.566 96.1387 171.517 95.3425 171.371C95.9901 170.575 96.6377 169.773 97.2854 168.978C97.2998 168.963 97.3134 168.947 97.326 168.931C97.6545 168.524 97.9861 168.12 98.3146 167.712L98.3148 167.712C98.3323 166.464 98.1893 165.218 97.8892 164.007L97.8889 164.007Z" fill="#E6E6E6"/>
<path d="M64.2756 171.752C64.2505 171.752 64.2254 171.752 64.2003 171.751C63.5615 171.714 62.9615 171.433 62.525 170.964C62.0886 170.496 61.8493 169.877 61.8571 169.237C61.8571 165.34 59.0766 163.066 56.3211 162.542C53.5656 162.018 50.146 163.112 48.7188 166.738L47.4212 169.999C46.2993 171.12 44.7793 171.749 43.1946 171.749C41.6098 171.749 40.0898 171.12 38.9679 169.999L38.8911 169.923L38.9388 169.825L61.8571 122.878V121.727C61.8254 121.373 61.8256 121.016 61.8577 120.661L61.8571 2.42042C61.8571 2.09631 61.9221 1.77551 62.0483 1.47703C62.1744 1.17855 62.3592 0.908475 62.5916 0.682839C62.824 0.457202 63.0993 0.280598 63.4011 0.163497C63.703 0.0463968 64.0252 -0.0088159 64.3488 0.00114279C64.9876 0.0376948 65.5876 0.319462 66.0241 0.787795C66.4606 1.25613 66.6999 1.87495 66.6921 2.51546V120.675C66.7239 121.03 66.7237 121.386 66.6915 121.741L66.6921 122.878L89.6581 169.923L89.5813 169.999C88.4594 171.12 86.9394 171.749 85.3546 171.749C83.7699 171.749 82.2499 171.12 81.128 169.999L81.094 169.948L79.8304 166.738C78.4032 163.112 74.9841 162.019 72.2281 162.542C69.4726 163.066 66.6921 165.34 66.6921 169.237V169.332C66.6921 169.974 66.4375 170.589 65.9844 171.043C65.5312 171.497 64.9166 171.752 64.2756 171.752L64.2756 171.752Z" fill="#E6E6E6"/>
<path d="M106.228 85.5841H22.3222C21.3468 85.583 20.4117 85.1946 19.7221 84.5041C19.0324 83.8137 18.6444 82.8775 18.6433 81.901V23.1685C18.6444 22.1919 19.0323 21.2557 19.722 20.5652C20.4117 19.8747 21.3468 19.4863 22.3222 19.4852H106.228C107.203 19.4864 108.138 19.8748 108.828 20.5653C109.517 21.2558 109.905 22.192 109.906 23.1685V81.901C109.905 82.8775 109.517 83.8136 108.828 84.5041C108.138 85.1946 107.203 85.583 106.228 85.5841V85.5841Z" fill="white"/>
<path d="M106.228 86.041H22.322C21.2257 86.0398 20.1746 85.6033 19.3994 84.8272C18.6242 84.0511 18.1881 82.9988 18.1868 81.9012V23.1684C18.188 22.0708 18.6241 21.0185 19.3994 20.2424C20.1746 19.4662 21.2257 19.0297 22.322 19.0284H106.228C107.324 19.0297 108.375 19.4663 109.15 20.2424C109.925 21.0185 110.361 22.0708 110.363 23.1684V81.9012C110.361 82.9988 109.925 84.051 109.15 84.8271C108.375 85.6032 107.324 86.0398 106.228 86.041V86.041ZM22.322 19.9422C21.4676 19.9431 20.6485 20.2833 20.0444 20.8882C19.4403 21.493 19.1004 22.3131 19.0994 23.1684V81.9012C19.1005 82.7565 19.4403 83.5765 20.0445 84.1813C20.6486 84.7861 21.4677 85.1263 22.322 85.1273H106.228C107.082 85.1263 107.901 84.7861 108.505 84.1813C109.109 83.5765 109.449 82.7565 109.45 81.9012V23.1684C109.449 22.3131 109.109 21.493 108.505 20.8882C107.901 20.2834 107.082 19.9431 106.228 19.9422H22.322Z" fill="#F2F2F2"/>
<path d="M76.6807 23.1574H51.8692C50.2962 23.1556 48.7881 22.5292 47.6758 21.4156C46.5635 20.3019 45.9378 18.792 45.936 17.2171V17.1091H82.6139V17.2171C82.6122 18.792 81.9865 20.3019 80.8742 21.4156C79.7619 22.5292 78.2538 23.1556 76.6807 23.1574V23.1574Z" fill="#E6E6E6"/>
<path d="M76.7884 89.2563H51.9769C50.4039 89.2545 48.8958 88.6281 47.7835 87.5144C46.6712 86.4008 46.0455 84.8909 46.0437 83.316V83.208H82.7216V83.316C82.7198 84.8909 82.0941 86.4008 80.9818 87.5144C79.8695 88.6281 78.3614 89.2545 76.7884 89.2563V89.2563Z" fill="#E6E6E6"/>
<path d="M117.011 172.335C117.011 172.422 117.005 172.509 116.993 172.59C116.981 172.67 116.963 172.744 116.94 172.806C116.918 172.868 116.891 172.916 116.862 172.95C116.832 172.983 116.801 173 116.769 173H5.56041C5.49628 173 5.43478 172.93 5.38943 172.805C5.34409 172.68 5.3186 172.511 5.3186 172.335C5.3186 172.158 5.34409 171.989 5.38943 171.864C5.43478 171.739 5.49628 171.669 5.56041 171.669H116.769C116.801 171.669 116.832 171.686 116.862 171.719C116.891 171.753 116.918 171.802 116.94 171.863C116.963 171.925 116.981 171.999 116.993 172.08C117.005 172.16 117.011 172.247 117.011 172.335V172.335Z" fill="#CCCCCC"/>
</g>
<defs>
<clipPath id="clip0_2480_12215">
<rect width="121" height="173" fill="white"/>
</clipPath>
</defs>
</svg>