<svg width="501" height="511" viewBox="0 0 501 511" fill="none" xmlns="http://www.w3.org/2000/svg">
<g clip-path="url(#clip0_1779_918)">
<path d="M250.666 -0.426758C112.4 -0.426758 -0.09375 112.068 -0.09375 250.333C-0.09375 388.599 112.396 501.093 250.666 501.093C388.937 501.093 501.426 388.599 501.426 250.333C501.426 112.068 388.937 -0.426758 250.666 -0.426758V-0.426758ZM464.093 250.333C464.093 302.464 445.27 350.276 414.109 387.387L113.629 86.8799C150.738 55.7132 198.541 36.8959 250.669 36.8959C368.352 36.9011 464.096 132.645 464.096 250.323L464.093 250.333ZM37.2529 250.333C37.2529 198.203 56.0756 150.391 87.2263 113.293L387.72 413.787C350.621 444.948 302.808 463.765 250.68 463.765C132.997 463.765 37.2529 368.02 37.2529 250.339V250.333Z" fill="#EB5757"/>
</g>
<defs>
<clipPath id="clip0_1779_918">
<rect width="501" height="511" fill="white"/>
</clipPath>
</defs>
</svg>
