<svg width="16" height="20" viewBox="0 0 16 20" fill="none" xmlns="http://www.w3.org/2000/svg">
<circle cx="8" cy="10" r="8" fill="#EB5757"/>
<path d="M8.27344 11.4258H7.86328L7.66406 7.28906H8.47266L8.27344 11.4258ZM7.59375 12.5859C7.59375 12.2318 7.75 12.0547 8.0625 12.0547C8.21354 12.0547 8.32943 12.1003 8.41016 12.1914C8.49349 12.2826 8.53516 12.4141 8.53516 12.5859C8.53516 12.7526 8.49349 12.8828 8.41016 12.9766C8.32682 13.0677 8.21094 13.1133 8.0625 13.1133C7.92708 13.1133 7.8151 13.0729 7.72656 12.9922C7.63802 12.9089 7.59375 12.7734 7.59375 12.5859Z" fill="white"/>
<path d="M8.27344 11.4258V11.6258H8.46404L8.47321 11.4354L8.27344 11.4258ZM7.86328 11.4258L7.66351 11.4354L7.67268 11.6258H7.86328V11.4258ZM7.66406 7.28906V7.08906H7.4542L7.46429 7.29868L7.66406 7.28906ZM8.47266 7.28906L8.67242 7.29868L8.68252 7.08906H8.47266V7.28906ZM8.41016 12.1914L8.26042 12.324L8.26255 12.3264L8.41016 12.1914ZM8.41016 12.9766L8.55778 13.1115L8.55964 13.1094L8.41016 12.9766ZM7.72656 12.9922L7.58947 13.1378L7.59181 13.14L7.72656 12.9922ZM8.27344 11.2258H7.86328V11.6258H8.27344V11.2258ZM8.06305 11.4162L7.86383 7.27944L7.46429 7.29868L7.66351 11.4354L8.06305 11.4162ZM7.66406 7.48906H8.47266V7.08906H7.66406V7.48906ZM8.27289 7.27944L8.07367 11.4162L8.47321 11.4354L8.67242 7.29868L8.27289 7.27944ZM7.79375 12.5859C7.79375 12.434 7.82782 12.3573 7.86091 12.3198C7.88978 12.2871 7.94403 12.2547 8.0625 12.2547V11.8547C7.86847 11.8547 7.68835 11.9108 7.56097 12.0552C7.43781 12.1948 7.39375 12.3838 7.39375 12.5859H7.79375ZM8.0625 12.2547C8.17116 12.2547 8.22653 12.2857 8.26044 12.324L8.55987 12.0588C8.43233 11.9148 8.25592 11.8547 8.0625 11.8547V12.2547ZM8.26255 12.3264C8.30093 12.3683 8.33516 12.4444 8.33516 12.5859H8.73516C8.73516 12.3838 8.68605 12.1968 8.55776 12.0565L8.26255 12.3264ZM8.33516 12.5859C8.33516 12.72 8.30202 12.7972 8.26067 12.8437L8.55964 13.1094C8.68496 12.9685 8.73516 12.7852 8.73516 12.5859H8.33516ZM8.26255 12.8416C8.22468 12.883 8.16709 12.9133 8.0625 12.9133V13.3133C8.25478 13.3133 8.42896 13.2524 8.55776 13.1115L8.26255 12.8416ZM8.0625 12.9133C7.96996 12.9133 7.90817 12.8871 7.86131 12.8444L7.59181 13.14C7.72204 13.2587 7.8842 13.3133 8.0625 13.3133V12.9133ZM7.86364 12.8465C7.83259 12.8173 7.79375 12.7478 7.79375 12.5859H7.39375C7.39375 12.7991 7.44345 13.0004 7.58949 13.1378L7.86364 12.8465Z" fill="white"/>
</svg>
