<svg width="17" height="17" viewBox="0 0 17 17" fill="none" xmlns="http://www.w3.org/2000/svg">
<g clip-path="url(#clip0_1608_10897)">
<path d="M8.5 16.25C12.7802 16.25 16.25 12.7802 16.25 8.5C16.25 4.21979 12.7802 0.75 8.5 0.75C4.21979 0.75 0.75 4.21979 0.75 8.5C0.75 12.7802 4.21979 16.25 8.5 16.25Z" stroke="#E00303" stroke-width="1.5"/>
<path d="M8.49967 12.6248C9.00594 12.6248 9.41634 12.2144 9.41634 11.7081C9.41634 11.2019 9.00594 10.7915 8.49967 10.7915C7.99341 10.7915 7.58301 11.2019 7.58301 11.7081C7.58301 12.2144 7.99341 12.6248 8.49967 12.6248Z" fill="#E00303"/>
<path d="M7.58301 4.375H9.41634V9.875H7.58301V4.375Z" fill="#E00303"/>
</g>
<defs>
<clipPath id="clip0_1608_10897">
<rect width="17" height="17" fill="white"/>
</clipPath>
</defs>
</svg>
