<svg width="26" height="26" viewBox="0 0 26 26" fill="none" xmlns="http://www.w3.org/2000/svg">
<path d="M4.61097 17.9765C3.40124 15.9355 2.9781 13.5232 3.42097 11.1923C3.86384 8.86143 5.14227 6.77236 7.01625 5.31729C8.89024 3.86221 11.2309 3.14119 13.5988 3.28959C15.9667 3.43799 18.1991 4.4456 19.8767 6.12325C21.5544 7.80091 22.562 10.0332 22.7104 12.4012C22.8588 14.7691 22.1378 17.1097 20.6827 18.9837C19.2276 20.8577 17.1386 22.1361 14.8077 22.579C12.4768 23.0219 10.0645 22.5987 8.02347 21.389V21.389L4.65159 22.3437C4.51344 22.3841 4.36697 22.3866 4.22753 22.3509C4.08808 22.3153 3.9608 22.2427 3.85902 22.141C3.75724 22.0392 3.68472 21.9119 3.64905 21.7725C3.61338 21.633 3.61588 21.4865 3.65628 21.3484L4.61097 17.9765Z" stroke="#1890FF" stroke-width="1.5" stroke-linecap="round" stroke-linejoin="round"/>
<path d="M13 14.2188C13.6731 14.2188 14.2188 13.6731 14.2188 13C14.2188 12.3269 13.6731 11.7812 13 11.7812C12.3269 11.7812 11.7812 12.3269 11.7812 13C11.7812 13.6731 12.3269 14.2188 13 14.2188Z" fill="#1890FF"/>
<path d="M8.125 14.2188C8.7981 14.2188 9.34375 13.6731 9.34375 13C9.34375 12.3269 8.7981 11.7812 8.125 11.7812C7.4519 11.7812 6.90625 12.3269 6.90625 13C6.90625 13.6731 7.4519 14.2188 8.125 14.2188Z" fill="#1890FF"/>
<path d="M17.875 14.2188C18.5481 14.2188 19.0938 13.6731 19.0938 13C19.0938 12.3269 18.5481 11.7812 17.875 11.7812C17.2019 11.7812 16.6562 12.3269 16.6562 13C16.6562 13.6731 17.2019 14.2188 17.875 14.2188Z" fill="#1890FF"/>
</svg>
