<svg width="13" height="15" viewBox="0 0 13 15" fill="none" xmlns="http://www.w3.org/2000/svg">
<path d="M0.43678 13.9003L0.436828 13.9003C0.644452 14.1053 0.925663 14.2203 1.21865 14.2203H9.5361C9.8292 14.2203 10.1104 14.1053 10.3179 13.9003L10.318 13.9003C10.5255 13.6951 10.6423 13.4166 10.6423 13.126V4.07766C10.6423 3.78709 10.5255 3.50851 10.3179 3.30341C10.1104 3.09835 9.8292 2.98334 9.5361 2.98334H1.21865C0.925665 2.98334 0.644455 3.09836 0.436828 3.30338L0.436805 3.30341C0.22924 3.5085 0.112402 3.78709 0.112402 4.07766V13.126C0.112402 13.4166 0.229254 13.6951 0.43678 13.9003ZM0.887396 4.07765C0.887396 3.89863 1.03464 3.75151 1.21865 3.75151H9.5361C9.72022 3.75151 9.86735 3.89861 9.86735 4.07765V13.126C9.86735 13.305 9.7202 13.4522 9.5361 13.4522H1.21865C1.03466 13.4522 0.887396 13.3049 0.887396 13.126V4.07765Z" fill="#0F75BC" stroke="#0F75BC" stroke-width="0.2"/>
<path d="M11.5432 11.8122V11.8651H11.2126H11.1126V11.7651V11.197V11.097H11.2126H11.5395C11.702 11.0842 11.8527 11.0093 11.9599 10.8884C12.0678 10.7667 12.1227 10.6082 12.1132 10.4472L12.1129 10.4413H12.1131V2.05206V2.04618L12.1132 2.04619C12.1227 1.88506 12.0678 1.72657 11.9599 1.60487C11.8527 1.48398 11.702 1.40906 11.5394 1.39632H3.82457C3.66205 1.40907 3.51125 1.484 3.40405 1.6049C3.29624 1.72662 3.2413 1.88509 3.25078 2.04619L3.25112 2.05206H3.25095V2.37598V2.47598H3.15095H2.57595H2.47595V2.37598V2.05375C2.46384 1.68908 2.59804 1.33471 2.84911 1.06776L11.5432 11.8122ZM11.5432 11.8122L11.5471 11.8651C11.9155 11.8507 12.2634 11.6928 12.5148 11.4255L12.5149 11.4255C12.7658 11.1586 12.9001 10.8043 12.888 10.4397V2.05374C12.9001 1.68904 12.7658 1.33467 12.5149 1.06776L12.5148 1.06774C12.2634 0.800442 11.9156 0.642539 11.5471 0.62821L11.5471 0.628134H11.5432H3.82078V0.628059L3.81689 0.62821C3.44846 0.642533 3.10044 0.800416 2.84912 1.06774L11.5432 11.8122Z" fill="#0F75BC" stroke="#0F75BC" stroke-width="0.2"/>
</svg>
