<svg width="24" height="24" viewBox="0 0 24 24" fill="none" xmlns="http://www.w3.org/2000/svg">
<g clip-path="url(#clip0_4434_11922)">
<path fill-rule="evenodd" clip-rule="evenodd" d="M3.75 9.84526C3.2355 9.97801 2.76075 10.2465 2.379 10.629C1.81575 11.1915 1.5 11.9543 1.5 12.75C1.5 13.4737 1.5 14.2763 1.5 15C1.5 15.7957 1.81575 16.5585 2.379 17.121C2.9415 17.6843 3.70425 18 4.5 18H5.25C5.6475 18 6.02925 17.8418 6.3105 17.5605C6.59175 17.2793 6.75 16.8975 6.75 16.5C6.75 15.201 6.75 12.549 6.75 11.25C6.75 10.8525 6.59175 10.4707 6.3105 10.1895C6.02925 9.90825 5.64825 9.75 5.25 9.75V8.96024C5.27475 5.64374 8.31 3 12 3C15.705 3 18.75 5.6655 18.75 9V9.75C18.3525 9.75 17.9708 9.90825 17.6895 10.1895C17.4083 10.4707 17.25 10.8525 17.25 11.25C17.25 12.549 17.25 15.201 17.25 16.5C17.25 16.8975 17.4083 17.2793 17.6895 17.5605C17.8943 17.7653 18.1515 17.9048 18.4297 17.9655C18.1807 18.4988 17.8733 18.9112 17.439 19.173C17.1465 19.3492 16.8 19.4505 16.3875 19.4827C16.0718 18.6187 15.2392 18 14.2612 18C13.0117 18 12 19.0095 12 20.25C12 21.4905 13.0117 22.5 14.2612 22.5C15.252 22.5 16.0927 21.8655 16.3987 20.985C17.124 20.9423 17.7165 20.757 18.213 20.4578C19.0448 19.956 19.623 19.113 20.0535 17.9482C20.6438 17.838 21.1912 17.5515 21.621 17.121C22.1842 16.5585 22.5 15.7957 22.5 15C22.5 14.2763 22.5 13.4737 22.5 12.75C22.5 11.9543 22.1842 11.1915 21.621 10.629C21.2392 10.2465 20.7645 9.97801 20.25 9.84526V9C20.25 4.88325 16.5742 1.5 12 1.5C7.4445 1.5 3.77925 4.857 3.75 8.95125V9.84526ZM15.0098 20.1135C14.9445 19.7632 14.6325 19.5 14.2612 19.5C13.8427 19.5 13.5 19.8345 13.5 20.25C13.5 20.6655 13.8427 21 14.2612 21C14.6377 21 14.9535 20.7292 15.0128 20.3722C15.0015 20.3145 14.9978 20.2538 15.0015 20.193C15.003 20.166 15.006 20.139 15.0098 20.1135ZM19.5105 16.5C19.9042 16.497 20.2815 16.3395 20.5605 16.0605C20.8417 15.7793 21 15.3975 21 15V12.75C21 12.3525 20.8417 11.9707 20.5605 11.6895C20.2792 11.4082 19.8975 11.25 19.5 11.25H18.75V16.5H19.4858H19.503H19.5105ZM5.25 11.25V16.5H4.5C4.1025 16.5 3.72075 16.3418 3.4395 16.0605C3.15825 15.7793 3 15.3975 3 15V12.75C3 12.3525 3.15825 11.9707 3.4395 11.6895C3.72075 11.4082 4.1025 11.25 4.5 11.25H5.25Z" fill="#000015"/>
</g>
<defs>
<clipPath id="clip0_4434_11922">
<rect width="24" height="24" fill="white"/>
</clipPath>
</defs>
</svg>
