<svg width="14" height="14" viewBox="0 0 14 14" fill="none" xmlns="http://www.w3.org/2000/svg">
<path d="M13.1873 9H11.5623V6.625C11.5623 6.55625 11.506 6.5 11.4373 6.5H7.56226V5H9.24976C9.38726 5 9.49976 4.8875 9.49976 4.75V0.25C9.49976 0.1125 9.38726 0 9.24976 0H4.74976C4.61226 0 4.49976 0.1125 4.49976 0.25V4.75C4.49976 4.8875 4.61226 5 4.74976 5H6.43726V6.5H2.56226C2.49351 6.5 2.43726 6.55625 2.43726 6.625V9H0.812256C0.674756 9 0.562256 9.1125 0.562256 9.25V13.75C0.562256 13.8875 0.674756 14 0.812256 14H5.31226C5.44976 14 5.56226 13.8875 5.56226 13.75V9.25C5.56226 9.1125 5.44976 9 5.31226 9H3.56226V7.625H10.4373V9H8.68726C8.54976 9 8.43726 9.1125 8.43726 9.25V13.75C8.43726 13.8875 8.54976 14 8.68726 14H13.1873C13.3248 14 13.4373 13.8875 13.4373 13.75V9.25C13.4373 9.1125 13.3248 9 13.1873 9ZM4.37476 10.1875V12.8125H1.74976V10.1875H4.37476ZM5.68726 3.8125V1.1875H8.31226V3.8125H5.68726ZM12.2498 12.8125H9.62476V10.1875H12.2498V12.8125Z" fill="white"/>
</svg>
