<svg width="157" height="149" viewBox="0 0 157 149" fill="none" xmlns="http://www.w3.org/2000/svg">
<g clip-path="url(#clip0_1782_891)">
<path d="M157.08 76.1449C157.051 93.3493 150.946 109.992 139.842 123.135C128.738 136.279 113.347 145.081 96.383 147.988C79.4192 150.896 61.9746 147.723 47.1222 139.028C32.2717 130.334 20.9693 116.676 15.2078 100.463C14.5457 98.5676 14.9457 96.4612 16.2563 94.9406C17.5681 93.4186 19.5925 92.7128 21.5664 93.0864C23.5404 93.4613 25.1645 94.8604 25.8269 96.7574C30.7443 110.722 40.5143 122.458 53.3594 129.828C66.2045 137.198 81.2694 139.712 95.8136 136.912C110.357 134.114 123.411 126.187 132.598 114.575C141.787 102.965 146.499 88.4403 145.875 73.6479C145.253 58.8554 139.339 44.7789 129.206 33.9787C119.075 23.1804 105.402 16.3767 90.6756 14.8085C75.9494 13.2389 61.1477 17.0088 48.9663 25.4312C36.7857 33.8536 28.0358 46.3679 24.3095 60.697C25.8095 59.6552 27.7234 59.4069 29.4401 60.0325C31.1571 60.6594 32.4614 62.0798 32.9391 63.8438C33.4157 65.6065 33.0056 67.492 31.8379 68.8974L20.6007 80.1306C19.546 81.1937 18.11 81.7918 16.6112 81.7918C15.1124 81.7918 13.6765 81.1937 12.6216 80.1306L1.38443 68.8974C0.146568 67.4506 -0.276079 65.4761 0.264464 63.6506C0.803754 61.8252 2.23223 60.3971 4.05815 59.8582C5.88545 59.3179 7.86082 59.7391 9.30689 60.9778L12.1162 63.7861C15.3005 45.8432 25.0804 29.74 39.5357 18.6384C53.9922 7.5368 72.0786 2.23859 90.2412 3.78716C108.405 5.33548 125.333 13.6175 137.701 27.0058C150.067 40.3941 156.978 57.9208 157.078 76.1429L157.08 76.1449ZM110.504 94.6232L89.6583 73.8418V36.8301C89.6583 34.8229 88.5872 32.9688 86.849 31.9658C85.1107 30.9629 82.9686 30.9629 81.2304 31.9658C79.4921 32.9688 78.4211 34.823 78.4211 36.8301V76.1462C78.4123 77.6394 78.9992 79.0736 80.0502 80.1343L102.525 102.601C103.972 103.838 105.947 104.261 107.773 103.72C109.599 103.181 111.028 101.753 111.567 99.9279C112.108 98.1013 111.686 96.1266 110.447 94.681L110.504 94.6232Z" fill="#0F75BC"/>
</g>
<defs>
<clipPath id="clip0_1782_891">
<rect width="157" height="149" fill="white"/>
</clipPath>
</defs>
</svg>
