<svg width="13" height="14" viewBox="0 0 13 14" fill="none" xmlns="http://www.w3.org/2000/svg">
<g clip-path="url(#clip0_2149_1152)">
<path d="M6.74074 0.981797L6.74075 0.981746L5.67408 1.50846C5.36078 2.13788 5.19711 2.84263 5.201 3.54479H5.151V3.54492V10.3195C5.151 10.3363 5.1526 10.3531 5.1558 10.3698L5.15581 10.3699L5.73841 13.3886C5.79159 13.7662 6.11855 14.05 6.49943 14.05H6.49944H6.49945H6.49946H6.49947H6.49947H6.49948H6.49949H6.4995H6.4995H6.49951H6.49952H6.49953H6.49954H6.49954H6.49955H6.49956H6.49957H6.49958H6.49959H6.4996H6.4996H6.49961H6.49962H6.49963H6.49964H6.49964H6.49965H6.49966H6.49967H6.49967H6.49968H6.49969H6.4997H6.4997H6.49971H6.49972H6.49973H6.49974H6.49974H6.49975H6.49976H6.49977H6.49978H6.49979H6.49979H6.4998H6.49981H6.49982H6.49983H6.49984H6.49984H6.49985H6.49986H6.49987H6.49988H6.49989H6.4999H6.49991H6.49992H6.49992H6.49993H6.49994H6.49995H6.49996H6.49997H6.49998H6.49999H6.5H6.50001H6.50002H6.50003H6.50004H6.50004H6.50005H6.50006H6.50007H6.50008H6.50009H6.5001H6.50011H6.50012H6.50013H6.50014H6.50014H6.50015H6.50016H6.50017H6.50017H6.50018H6.50019H6.5002H6.5002H6.50021H6.50022H6.50023H6.50023H6.50024H6.50025H6.50026H6.50026H6.50027H6.50028H6.50029H6.50029H6.5003H6.50031H6.50031H6.50032H6.50033H6.50034H6.50034H6.50035H6.50036H6.50037H6.50038H6.50038H6.50039H6.5004H6.50041H6.50041H6.50042H6.50043H6.50044H6.50044H6.50045H6.50046H6.50047H6.50047H6.50048H6.50049H6.5005H6.5005H6.50051H6.50052C6.88132 14.05 7.20852 13.7665 7.25982 13.3998L7.84399 10.3707C7.84401 10.3706 7.84404 10.3705 7.84407 10.3703C7.8476 10.3533 7.84916 10.3362 7.84916 10.3195V3.54436L7.84916 3.54424C7.84762 2.85975 7.68894 2.17266 7.39452 1.56676C7.27508 1.28709 7.04036 1.07495 6.74074 0.981797ZM6.73461 13.3111L6.73454 13.3111L6.73418 13.3137C6.71815 13.4294 6.61751 13.517 6.49986 13.517C6.3837 13.517 6.28218 13.4306 6.26445 13.3027L6.26452 13.3027L6.26402 13.3001L5.68424 10.2939L5.68424 3.54372L5.68424 3.54345C5.68083 2.91538 5.82691 2.28589 6.10684 1.72346L6.10685 1.72343C6.19778 1.54042 6.40732 1.44582 6.59304 1.49378C6.73288 1.53776 6.84691 1.64045 6.90897 1.78615L6.90891 1.78618L6.90999 1.78841C7.17431 2.33263 7.3146 2.94006 7.31612 3.54482C7.31612 3.54485 7.31612 3.54488 7.31612 3.54491L7.31612 10.2937L6.73461 13.3111Z" fill="#0F75BC" stroke="#0F75BC" stroke-width="0.1"/>
<path d="M0.0941458 8.5694L0.0941487 8.5694L5.29034 5.75476C5.29037 5.75475 5.29039 5.75474 5.29042 5.75472L5.29047 5.7547L5.31428 5.79866L0.0941458 8.5694ZM0.0941458 8.5694C0.00811822 8.61601 -0.0454834 8.70584 -0.0454834 8.80367V10.1027C-0.0454834 10.1902 -0.00280841 10.2717 0.0690603 10.3217L0.0692768 10.3219M0.0941458 8.5694L0.0692768 10.3219M0.0692768 10.3219C0.114439 10.353 0.167413 10.3693 0.22105 10.3693M0.0692768 10.3219L0.22105 10.3693M0.22105 10.3693C0.252232 10.3693 0.283983 10.364 0.314601 10.3524L0.22105 10.3693ZM5.55385 5.76008L5.55383 5.76007L0.314664 10.3524L5.51092 8.40381L5.51099 8.40378C5.61486 8.36465 5.68388 8.26529 5.68388 8.15412V5.98899V5.98897C5.68385 5.89517 5.63454 5.8083 5.55385 5.76008ZM5.15084 6.43671V7.96944L0.487533 9.71819V8.96251L5.15084 6.43671ZM5.5282 5.803L5.5282 5.803L5.5282 5.803Z" fill="#0F75BC" stroke="#0F75BC" stroke-width="0.1"/>
<path d="M12.9057 8.56943L12.9058 8.56946C12.9916 8.61607 13.0452 8.70589 13.0452 8.80372V10.1028C13.0452 10.1902 13.0023 10.272 12.9304 10.3218M12.9057 8.56943L7.48881 8.40387L12.6851 10.3525L12.6855 10.3526C12.7158 10.3637 12.7474 10.3693 12.7789 10.3693C12.8323 10.3693 12.8854 10.3534 12.9304 10.3218M12.9057 8.56943L7.70941 5.75475L7.70931 5.75469C7.62692 5.7103 7.52698 5.71178 7.44606 5.76012M12.9057 8.56943L7.44606 5.76012M12.9304 10.3218C12.9304 10.3218 12.9304 10.3218 12.9303 10.3219L12.9019 10.2808L12.9306 10.3217C12.9305 10.3217 12.9305 10.3217 12.9304 10.3218ZM7.44606 5.76012C7.44606 5.76011 7.44607 5.76011 7.44608 5.76011L7.47168 5.80305L7.44603 5.76013C7.44604 5.76013 7.44605 5.76012 7.44606 5.76012ZM12.5123 8.96252V9.71821L7.84904 7.96946V6.43649L12.5123 8.96252Z" fill="#0F75BC" stroke="#0F75BC" stroke-width="0.1"/>
<path d="M2.76927 7.28836V7.33836H2.81927H3.25229H3.30229V7.28836V6.63881C3.30229 6.54711 3.37712 6.4723 3.4688 6.4723C3.56047 6.4723 3.63531 6.54714 3.63531 6.63881V6.85532V6.90532H3.68531H4.11832H4.16832V6.85532V6.63882C4.16832 6.63881 4.16832 6.63881 4.16832 6.63881C4.16837 6.25305 3.85455 5.93926 3.46882 5.93926C3.0831 5.93926 2.76927 6.25308 2.76927 6.63881V7.28836Z" fill="#0F75BC" stroke="#0F75BC" stroke-width="0.1"/>
<path d="M0.820972 8.37063V8.42063H0.870972H1.30399H1.35399V8.37063V7.72108C1.35399 7.62947 1.42876 7.55478 1.5205 7.55478C1.61223 7.55478 1.687 7.62945 1.687 7.72108V7.77108H1.737H2.17002H2.22001L2.22002 7.72109C2.22007 7.33536 1.90625 7.02153 1.52052 7.02153C1.13479 7.02153 0.820972 7.33536 0.820972 7.72108V8.37063Z" fill="#0F75BC" stroke="#0F75BC" stroke-width="0.1"/>
<path d="M8.83184 6.85532V6.90532H8.88184H9.31485H9.36485V6.85532V6.63881C9.36485 6.54708 9.43949 6.4723 9.53136 6.4723C9.62323 6.4723 9.69787 6.5471 9.69787 6.63881V7.28836V7.33836H9.74787H10.1809H10.2309V7.28836V6.63882C10.2309 6.63881 10.2309 6.63881 10.2309 6.63881C10.2309 6.25305 9.91711 5.93926 9.53139 5.93926C9.14566 5.93926 8.83184 6.25308 8.83184 6.63881V6.85532Z" fill="#0F75BC" stroke="#0F75BC" stroke-width="0.1"/>
<path d="M10.7803 7.72108V7.77108H10.8303H11.2633H11.3133V7.72108C11.3133 7.62944 11.3879 7.55478 11.4798 7.55478C11.5717 7.55478 11.6463 7.62942 11.6463 7.72108V8.37063V8.42063H11.6963H12.1293H12.1793V8.37063V7.72109C12.1793 7.72109 12.1793 7.72109 12.1793 7.72108C12.1794 7.33535 11.8655 7.02153 11.4798 7.02153C11.0941 7.02153 10.7803 7.33536 10.7803 7.72108Z" fill="#0F75BC" stroke="#0F75BC" stroke-width="0.1"/>
<path d="M3.29674 13.9868C3.3452 14.0278 3.40624 14.05 3.46891 14.05C3.48362 14.05 3.49805 14.0486 3.5115 14.0466L3.5115 14.0466L3.51243 14.0465L6.1106 13.6135L6.15993 13.6053L6.1517 13.5559L6.08043 13.1288L6.0722 13.0794L6.02289 13.0877L3.73519 13.469V13.0685L5.77106 11.847L5.81393 11.8213L5.78821 11.7784L5.5654 11.4071L5.53968 11.3642L5.4968 11.3899L3.33174 12.689L3.3574 12.7319L3.33167 12.689L3.33171 12.689C3.25139 12.737 3.20238 12.8237 3.20238 12.9174V13.7835C3.20238 13.8618 3.23699 13.9364 3.29674 13.9868ZM3.29674 13.9868L3.32904 13.9487M3.29674 13.9868C3.29676 13.9869 3.29678 13.9869 3.2968 13.9869L3.32904 13.9487M3.32904 13.9487C3.36844 13.982 3.41803 14 3.46891 14C3.48059 14 3.4925 13.9989 3.50421 13.9972L3.32904 13.9487Z" fill="#0F75BC" stroke="#0F75BC" stroke-width="0.1"/>
<path d="M9.67102 13.9487L9.70328 13.9869C9.7633 13.9362 9.79768 13.8618 9.79768 13.7835V12.9174V12.9174C9.79765 12.8239 9.74859 12.7373 9.66841 12.689L9.66836 12.689L7.50323 11.3899L7.46035 11.3642L7.43463 11.4071L7.21185 11.7784L7.18613 11.8213L7.229 11.847L9.26487 13.0685V13.4688L6.97694 13.0874L6.9276 13.0792L6.9194 13.1286L6.84838 13.5557L6.84019 13.605L6.88949 13.6133L9.48766 14.0463L9.48778 14.0463C9.50202 14.0486 9.51642 14.05 9.53137 14.05C9.59402 14.05 9.65512 14.0278 9.70343 13.9867L9.67102 13.9487ZM9.67102 13.9487C9.63185 13.982 9.58226 14 9.53137 14C9.51947 14 9.50779 13.9989 9.49588 13.997L7.2976 11.8298L7.25473 11.8041L7.45178 11.4757L7.45178 11.4757L7.47684 11.4339L7.47751 11.4328L7.52038 11.4585L9.64264 12.7319C9.70782 12.7711 9.74765 12.8414 9.74768 12.9174V13.7835C9.74768 13.8471 9.71975 13.9075 9.67102 13.9487Z" fill="#0F75BC" stroke="#0F75BC" stroke-width="0.1"/>
<path d="M6.99101 2.66186C6.92022 2.44989 6.71821 2.3137 6.49779 2.30829C6.26808 2.31045 6.07062 2.46008 6.00912 2.67161L5.86188 3.10462L6.27196 3.24407L6.422 2.80194C6.43261 2.76601 6.46466 2.74153 6.50038 2.7413C6.53677 2.7413 6.56881 2.76446 6.58029 2.79846L6.72753 3.24232L7.13848 3.10612L6.99101 2.66186Z" fill="#0F75BC"/>
</g>
<defs>
<clipPath id="clip0_2149_1152">
<rect width="13" height="14" fill="white"/>
</clipPath>
</defs>
</svg>
