<svg width="18" height="18" viewBox="0 0 18 18" fill="none" xmlns="http://www.w3.org/2000/svg">
<g clip-path="url(#clip0)">
<path d="M5.52999 9.16045H5.52987L7.65371 12.0127H7.70371V12.0125V11.3343L7.70371 11.3342C7.70075 10.1349 6.72926 9.16341 5.52999 9.16045ZM7.13857 11.7301H2.56436V11.3344C2.56908 10.4478 3.28662 9.7303 4.17319 9.72559H5.52974C6.41629 9.7303 7.13383 10.4478 7.13857 11.3344V11.7301Z" fill="#333333" stroke="#333333" stroke-width="0.1"/>
<path d="M15.7239 11.2439L15.7239 11.244L15.7239 11.2439ZM15.7239 11.2439H15.7208M15.7239 11.2439H15.7208M15.7208 11.2439H9.4897V11.2439M15.7208 11.2439L9.4897 11.2439M9.4897 11.2439L9.48663 11.244M9.4897 11.2439L9.48663 11.244M9.48663 11.244C9.34422 11.2528 9.23071 11.3663 9.22197 11.5087L9.48663 11.244ZM9.48662 11.8082L9.48662 11.8081C9.33089 11.7985 9.21237 11.6645 9.22197 11.5087L9.48662 11.8082ZM9.48662 11.8082H9.4897M9.48662 11.8082H9.4897M9.4897 11.8082H15.7208V11.8083M9.4897 11.8082L15.7208 11.8083M15.7208 11.8083L15.7239 11.8081M15.7208 11.8083L15.7239 11.8081M15.7239 11.8081C15.8663 11.7994 15.9798 11.6858 15.9885 11.5435L15.7239 11.8081Z" fill="#333333" stroke="#333333" stroke-width="0.1"/>
<path d="M4.85156 5.70269C4.42942 5.70251 4.02407 5.86788 3.72256 6.1633L3.70893 6.17608L3.70891 6.17606L3.70777 6.1772L3.7072 6.17777L3.70719 6.17778C3.07606 6.80923 3.07628 7.83278 3.70778 8.46392C4.33324 9.09059 5.34663 9.09677 5.97965 8.47783L5.99331 8.46503L5.99333 8.46505L5.99447 8.4639L5.99505 8.46333C5.99505 8.46332 5.99506 8.46332 5.99506 8.46332C6.62617 7.83188 6.62595 6.80836 5.9945 6.17723C5.69182 5.87331 5.28052 5.70251 4.85156 5.70269ZM4.85156 5.70269C4.85156 5.70269 4.85157 5.70269 4.85158 5.70269L4.85156 5.75269L4.85154 5.70269C4.85154 5.70269 4.85155 5.70269 4.85156 5.70269ZM5.59565 6.57802L5.6175 6.59971L5.61954 6.59903C6.00894 7.01168 6.00181 7.66189 5.59816 8.06584C5.59816 8.06585 5.59815 8.06585 5.59815 8.06585L5.58704 8.07696C5.17395 8.47673 4.5168 8.47217 4.10929 8.06667C3.69844 7.65545 3.69846 6.98909 4.10934 6.5779C4.10935 6.57789 4.10935 6.57789 4.10935 6.57789L4.12042 6.56682C4.53345 6.16896 5.18871 6.17388 5.59565 6.57802Z" fill="#333333" stroke="#333333" stroke-width="0.1"/>
<path d="M16.4511 2.46782H16.451L1.549 2.46782L1.54886 2.46782C0.66686 2.47031 -0.0475087 3.18468 -0.05 4.06668V4.06682L-0.0500002 13.933L-0.0499998 13.9332C-0.0475087 14.8152 0.66686 15.5295 1.54886 15.532H1.549H16.451H16.4511C17.3331 15.5295 18.0475 14.8152 18.05 13.9332V13.933L18.05 4.06682L18.05 4.06668C18.0475 3.18468 17.3331 2.47031 16.4511 2.46782ZM17.4857 13.9329C17.4839 14.5037 17.0216 14.9659 16.4508 14.9678H1.54916C0.9784 14.9659 0.516143 14.5037 0.514261 13.9329V4.06691C0.516143 3.49618 0.978361 3.03396 1.54909 3.03208H16.4509C17.0217 3.03396 17.4839 3.49622 17.4857 4.06698V13.9329Z" fill="#333333" stroke="#333333" stroke-width="0.1"/>
<path d="M15.7239 6.19253L15.7239 6.19243H15.7208H9.48974V6.19234L9.48668 6.19253C9.34425 6.20127 9.23076 6.31484 9.22197 6.45722L9.22197 6.45723C9.21237 6.61302 9.33089 6.74706 9.48668 6.7566L9.48668 6.75669H9.48974H15.7208V6.75679L15.7239 6.7566C15.8663 6.74785 15.9798 6.63428 15.9886 6.49191L15.9886 6.49188C15.9982 6.33616 15.8797 6.20212 15.7239 6.19253Z" fill="#333333" stroke="#333333" stroke-width="0.1"/>
<path d="M15.7239 8.71841L15.7239 8.71831H15.7208H9.48974V8.71822L9.48668 8.7184C9.34425 8.72715 9.23076 8.84072 9.22197 8.9831L9.22197 8.98311C9.21237 9.1389 9.33089 9.27294 9.48668 9.28248L9.48668 9.28258H9.48974H15.7208V9.28267L15.7239 9.28248C15.8663 9.27374 15.9798 9.16017 15.9886 9.01779L15.9886 9.01776C15.9982 8.86204 15.8797 8.728 15.7239 8.71841Z" fill="#333333" stroke="#333333" stroke-width="0.1"/>
<path d="M15.7239 7.45547L15.7239 7.45537H15.7208H9.48974V7.45528L9.48668 7.45547C9.34425 7.46421 9.23076 7.57778 9.22197 7.72016L9.22197 7.72017C9.21237 7.87596 9.33089 8.01 9.48668 8.01954L9.48668 8.01963H9.48974H15.7208V8.01973L15.7239 8.01954C15.8663 8.0108 15.9798 7.89722 15.9886 7.75485L15.9886 7.75482C15.9982 7.5991 15.8797 7.46506 15.7239 7.45547Z" fill="#333333" stroke="#333333" stroke-width="0.1"/>
<path d="M15.7239 9.98125L15.7239 9.98134L15.7239 9.98125ZM15.7239 9.98125H15.7208M15.7239 9.98125H15.7208M15.7208 9.98125H9.4897V9.98116M15.7208 9.98125L9.4897 9.98116M9.4897 9.98116L9.48663 9.98134M9.4897 9.98116L9.48663 9.98134M9.48663 9.98134C9.34422 9.99009 9.23071 10.1036 9.22197 10.246L9.48663 9.98134ZM9.48662 10.5455L9.48662 10.5454C9.33089 10.5358 9.21237 10.4018 9.22197 10.246L9.48662 10.5455ZM9.48662 10.5455H9.4897M9.48662 10.5455H9.4897M9.4897 10.5455H15.7208V10.5456M9.4897 10.5455L15.7208 10.5456M15.7208 10.5456L15.7239 10.5454M15.7208 10.5456L15.7239 10.5454M15.7239 10.5454C15.8663 10.5367 15.9798 10.4231 15.9885 10.2808L15.7239 10.5454Z" fill="#333333" stroke="#333333" stroke-width="0.1"/>
</g>
<defs>
<clipPath id="clip0">
<rect width="18" height="18" fill="white"/>
</clipPath>
</defs>
</svg>
