<svg width="36" height="36" viewBox="0 0 36 36" fill="none" xmlns="http://www.w3.org/2000/svg">
<path d="M21.375 15.75H27" stroke="#0F75BC" stroke-width="1.5" stroke-linecap="round" stroke-linejoin="round"/>
<path d="M21.375 20.25H27" stroke="#0F75BC" stroke-width="1.5" stroke-linecap="round" stroke-linejoin="round"/>
<path d="M12.9517 20.25C14.8156 20.25 16.3267 18.739 16.3267 16.875C16.3267 15.011 14.8156 13.5 12.9517 13.5C11.0877 13.5 9.57666 15.011 9.57666 16.875C9.57666 18.739 11.0877 20.25 12.9517 20.25Z" stroke="#0F75BC" stroke-width="2" stroke-linecap="round" stroke-linejoin="round"/>
<path d="M8.59229 23.625C8.84012 22.6571 9.40307 21.7991 10.1924 21.1864C10.9817 20.5738 11.9525 20.2412 12.9517 20.2412C13.9509 20.2412 14.9216 20.5738 15.7109 21.1864C16.5002 21.7991 17.0632 22.6571 17.311 23.625" stroke="#0F75BC" stroke-width="2" stroke-linecap="round" stroke-linejoin="round"/>
<path d="M30.375 6.75H5.625C5.00368 6.75 4.5 7.25368 4.5 7.875V28.125C4.5 28.7463 5.00368 29.25 5.625 29.25H30.375C30.9963 29.25 31.5 28.7463 31.5 28.125V7.875C31.5 7.25368 30.9963 6.75 30.375 6.75Z" stroke="#0F75BC" stroke-width="2" stroke-linecap="round" stroke-linejoin="round"/>
</svg>
