<svg width="38" height="38" viewBox="0 0 38 38" fill="none" xmlns="http://www.w3.org/2000/svg">
<path d="M18.9958 37.617C8.25874 37.5757 -0.273836 29.089 0.0372989 18.7504C0.334495 8.8731 8.71341 0.912933 19.1468 0.983405C29.6541 1.0541 38.0738 9.34078 37.9693 19.4487C37.8652 29.5263 29.3081 37.7203 18.995 37.6178L18.9958 37.617ZM19.3983 16.6923C17.4751 16.7533 15.7558 17.3959 14.168 18.4091C14.0339 18.4948 13.9052 18.6006 13.8034 18.7204C13.4411 19.1474 13.5652 19.5087 14.1113 19.6463C14.3213 19.6991 14.5369 19.7354 14.7433 19.7993C15.6158 20.068 15.8511 20.4809 15.6298 21.354C15.0918 23.4765 14.543 25.5967 14.0141 27.7218C13.6219 29.2987 14.4494 30.5878 16.0176 30.7048C18.3385 30.8775 20.4099 30.1383 22.2731 28.8408C22.4705 28.7034 22.6235 28.3618 22.6024 28.1313C22.5898 27.9915 22.2073 27.876 21.9834 27.764C21.8891 27.7168 21.7747 27.708 21.6697 27.6805C20.6315 27.4127 20.3616 26.9939 20.6131 25.9944C21.1336 23.9216 21.6868 21.8564 22.173 19.7762C22.2884 19.2838 22.2962 18.7179 22.1669 18.2321C21.8775 17.1504 20.8967 16.6502 19.3984 16.6924L19.3983 16.6923ZM24.2268 10.3436C24.2297 8.4304 22.6976 6.92109 20.7401 6.90852C18.7495 6.89538 17.1514 8.42287 17.1679 10.3214C17.1847 12.2133 18.7424 13.6986 20.7177 13.7052C22.6435 13.7108 24.2235 12.1974 24.2268 10.3436V10.3436Z" fill="#0F75BC"/>
</svg>
