<svg width="13" height="13" viewBox="0 0 13 13" fill="none" xmlns="http://www.w3.org/2000/svg">
<g clip-path="url(#clip0_2156_1552)">
<path d="M8.04695 8.38358C7.93383 8.38358 7.82933 8.42471 7.75373 8.5053C7.67895 8.58503 7.64338 8.69156 7.64338 8.80406V11.3187C7.64338 11.5089 7.59644 11.6469 7.52909 11.7491C7.46113 11.8523 7.36662 11.9278 7.25911 11.983C7.03998 12.0954 6.78288 12.1152 6.65268 12.1152H2.19112C2.06091 12.1152 1.80381 12.0954 1.58468 11.983C1.47717 11.9278 1.38266 11.8523 1.31471 11.7492C1.24736 11.6469 1.20042 11.5089 1.20042 11.3187V1.85468C1.20042 1.66447 1.24736 1.52648 1.31471 1.42421C1.38267 1.32103 1.47718 1.24554 1.58468 1.19037C1.80382 1.07792 2.06092 1.05818 2.19112 1.05818H6.65268C6.78288 1.05818 7.03999 1.07792 7.25912 1.19037C7.36662 1.24553 7.46113 1.32102 7.52909 1.42421C7.59644 1.52648 7.64338 1.66447 7.64338 1.85468V4.3693C7.64338 4.48168 7.67889 4.58818 7.75362 4.66794C7.82918 4.74858 7.93371 4.78978 8.04695 4.78978C8.16007 4.78978 8.26458 4.74865 8.34017 4.66806C8.41496 4.58833 8.45053 4.48181 8.45053 4.3693V1.85468C8.45053 0.969856 7.75859 0.217432 6.90623 0.217432H1.93763C1.08527 0.217432 0.393335 0.969856 0.393335 1.85468V11.3187C0.393335 12.2035 1.08527 12.9559 1.93763 12.9559H6.90623C7.75859 12.9559 8.45053 12.2035 8.45053 11.3187V8.80406C8.45053 8.69156 8.41496 8.58503 8.34017 8.5053C8.26458 8.42471 8.16007 8.38358 8.04695 8.38358Z" fill="white" stroke="white" stroke-width="0.3"/>
<path d="M13.3229 6.61365L13.2267 6.71625L10.1593 9.98819C9.99868 10.1595 9.74609 10.1595 9.58551 9.98819C9.43009 9.82242 9.43009 9.57023 9.58551 9.40446L11.8075 7.03436H5.08106C4.96781 7.03436 4.86329 6.99316 4.78772 6.91251C4.71299 6.83276 4.67748 6.72626 4.67748 6.61388C4.67748 6.50138 4.71306 6.39485 4.78784 6.31513C4.86343 6.23453 4.96794 6.1934 5.08106 6.1934H11.8075L9.53458 3.76899C9.37916 3.60322 9.37917 3.35103 9.53458 3.18525M13.3229 6.61365L9.53458 3.18525M13.3229 6.61365L13.2267 6.51106L10.1083 3.18525C10.1083 3.18525 10.1083 3.18525 10.1083 3.18525C9.94774 3.01397 9.69516 3.01396 9.53458 3.18525M13.3229 6.61365L9.53458 3.18525" fill="white" stroke="white" stroke-width="0.3"/>
</g>
<defs>
<clipPath id="clip0_2156_1552">
<rect width="13" height="13" fill="white"/>
</clipPath>
</defs>
</svg>
