<svg width="15" height="15" viewBox="0 0 15 15" fill="none" xmlns="http://www.w3.org/2000/svg">
<g clip-path="url(#clip0_2145_1036)">
<path d="M13.661 0.805664C13.5974 0.805664 13.5321 0.817383 13.4668 0.844169L3.81723 4.7214H1.07169C0.924369 4.7214 0.803833 4.84528 0.803833 4.9993V10.0049C0.803833 10.1589 0.924369 10.2828 1.07169 10.2828H2.77426C2.71232 10.477 2.67883 10.6829 2.67883 10.8922C2.67883 11.9954 3.5795 12.8927 4.68776 12.8927C5.61522 12.8927 6.39703 12.2633 6.62805 11.4128L13.4685 14.1617C13.5337 14.1868 13.599 14.2002 13.6627 14.2002C13.9456 14.2002 14.1984 13.9625 14.1984 13.6444V1.36147C14.1967 1.04339 13.9456 0.805664 13.661 0.805664ZM4.68776 11.6924C4.24412 11.6924 3.88419 11.3341 3.88419 10.8922C3.88419 10.7047 3.94948 10.5255 4.06834 10.3832L5.48966 10.9541C5.45618 11.3659 5.10964 11.6924 4.68776 11.6924V11.6924ZM12.9913 12.6701L4.26589 9.16448L4.04993 9.07743H2.00919V5.92676H4.04993L4.26589 5.8397L12.9913 2.33412V12.6701V12.6701Z" fill="#0F75BC"/>
</g>
<defs>
<clipPath id="clip0_2145_1036">
<rect width="15" height="15" fill="white"/>
</clipPath>
</defs>
</svg>
