<svg width="14" height="14" viewBox="0 0 14 14" fill="none" xmlns="http://www.w3.org/2000/svg">
<g clip-path="url(#clip0_2145_1003)">
<path d="M12.9684 6.21797C13.4513 6.21797 13.6528 5.59766 13.2606 5.31172L7.29344 0.971094C7.20822 0.908659 7.10533 0.875 6.99969 0.875C6.89405 0.875 6.79116 0.908659 6.70594 0.971094L0.738752 5.31172C0.346565 5.59609 0.548127 6.21797 1.0325 6.21797H1.99969V12.0617H0.87469C0.80594 12.0617 0.74969 12.118 0.74969 12.1867V12.9992C0.74969 13.068 0.80594 13.1242 0.87469 13.1242H13.1247C13.1934 13.1242 13.2497 13.068 13.2497 12.9992V12.1867C13.2497 12.118 13.1934 12.0617 13.1247 12.0617H11.9997V6.21797H12.9684ZM6.99969 2.07266L11.2356 5.15391H2.76375L6.99969 2.07266ZM3.12469 6.21797H4.95282V12.0617H3.12469V6.21797ZM6.07782 6.21797H7.90594V12.0617H6.07782V6.21797ZM10.8747 12.0617H9.03094V6.21797H10.8747V12.0617Z" fill="#0F75BC"/>
</g>
<defs>
<clipPath id="clip0_2145_1003">
<rect width="14" height="14" fill="white"/>
</clipPath>
</defs>
</svg>
