<svg width="14" height="14" viewBox="0 0 14 14" fill="none" xmlns="http://www.w3.org/2000/svg">
<g clip-path="url(#clip0_2149_1134)">
<path d="M8.68768 9.49785C8.58137 9.78056 8.26593 9.92359 7.98334 9.81731C7.54742 9.65341 7.08777 9.57031 6.61719 9.57031H5.79688C3.65589 9.57031 1.91406 11.3121 1.91406 13.4531C1.91406 13.7552 1.66923 14 1.36719 14C1.06515 14 0.820312 13.7552 0.820312 13.4531C0.820312 10.709 3.05279 8.47656 5.79688 8.47656H6.61719C7.21968 8.47656 7.80883 8.5832 8.36823 8.7935C8.65093 8.89982 8.79394 9.21514 8.68768 9.49785ZM9.84375 3.69141C9.84375 5.72685 8.18779 7.38281 6.15234 7.38281C4.1169 7.38281 2.46094 5.72685 2.46094 3.69141C2.46094 1.65596 4.1169 0 6.15234 0C8.18779 0 9.84375 1.65596 9.84375 3.69141V3.69141ZM8.75 3.69141C8.75 2.25906 7.58469 1.09375 6.15234 1.09375C4.72 1.09375 3.55469 2.25906 3.55469 3.69141C3.55469 5.12375 4.72 6.28906 6.15234 6.28906C7.58469 6.28906 8.75 5.12375 8.75 3.69141ZM13.1797 11.6575C13.1797 10.8032 12.4199 10.1081 11.4859 10.1081C11.0889 10.1081 10.8008 9.9164 10.8008 9.65234C10.8008 9.40105 11.0032 9.19661 11.252 9.19661C11.5028 9.19661 11.8295 9.22395 12.351 9.42679C12.6325 9.53624 12.9495 9.39682 13.0589 9.11531C13.1684 8.83384 13.029 8.51687 12.7475 8.40741C12.476 8.30184 12.2393 8.2326 12.0312 8.18702V7.76562C12.0312 7.46359 11.7864 7.21875 11.4844 7.21875C11.1823 7.21875 10.9375 7.46359 10.9375 7.76562V8.1352C10.2359 8.2813 9.70703 8.906 9.70703 9.65234C9.70703 10.5357 10.4718 11.2018 11.4859 11.2018C11.8112 11.2018 12.0859 11.4105 12.0859 11.6576C12.0859 11.9003 11.8602 12.1133 11.6029 12.1133C11.4021 12.1133 10.8983 12.0397 10.4012 11.8421C10.1206 11.7306 9.8026 11.8676 9.69104 12.1483C9.57945 12.4289 9.71655 12.7469 9.9972 12.8585C10.3139 12.9844 10.6443 13.0742 10.9375 13.1311V13.4531C10.9375 13.7552 11.1823 14 11.4844 14C11.7864 14 12.0312 13.7552 12.0312 13.4531V13.1477C12.2813 13.0774 12.5124 12.9459 12.705 12.7603C13.0111 12.4653 13.1797 12.0736 13.1797 11.6575V11.6575Z" fill="#0F75BC"/>
</g>
<defs>
<clipPath id="clip0_2149_1134">
<rect width="14" height="14" fill="white"/>
</clipPath>
</defs>
</svg>
