<svg width="17" height="16" viewBox="0 0 17 16" fill="none" xmlns="http://www.w3.org/2000/svg">
<path d="M13 8.5H16" stroke="#333333" stroke-linecap="round" stroke-linejoin="round"/>
<path d="M14.5 7V10" stroke="#333333" stroke-linecap="round" stroke-linejoin="round"/>
<path d="M7.25 10C9.32107 10 11 8.32107 11 6.25C11 4.17893 9.32107 2.5 7.25 2.5C5.17893 2.5 3.5 4.17893 3.5 6.25C3.5 8.32107 5.17893 10 7.25 10Z" stroke="#333333" stroke-miterlimit="10"/>
<path d="M1.8877 12.5C2.54473 11.7169 3.3653 11.0872 4.29173 10.6552C5.21817 10.2232 6.22798 9.99929 7.2502 9.99929C8.27241 9.99929 9.28222 10.2232 10.2087 10.6552C11.1351 11.0872 11.9557 11.7169 12.6127 12.5" stroke="#333333" stroke-linecap="round" stroke-linejoin="round"/>
</svg>
