<svg width="24" height="24" viewBox="0 0 24 24" fill="none" xmlns="http://www.w3.org/2000/svg">
<path d="M11.9965 23.9991C10.4206 24.0007 8.85995 23.6914 7.40376 23.0889C5.94757 22.4865 4.62446 21.6027 3.51017 20.4881C2.39588 19.3735 1.51229 18.0501 0.909969 16.5935C0.307649 15.137 -0.0015722 13.5759 6.01081e-06 11.9997V11.7597C0.0480019 9.40708 0.786128 7.12046 2.12265 5.184C3.45917 3.24754 5.33514 1.74664 7.51743 0.867835C9.69971 -0.0109717 12.0921 -0.228935 14.3972 0.241036C16.7023 0.711007 18.8185 1.84819 20.4828 3.51125C22.1619 5.18943 23.3056 7.32816 23.7691 9.65676C24.2326 11.9854 23.995 14.3991 23.0864 16.5926C22.1779 18.7861 20.6392 20.6607 18.6651 21.9791C16.6909 23.2975 14.3702 24.0005 11.9965 23.9991V23.9991ZM11.9965 13.6916L15.1036 16.7995L16.7951 15.1075L13.688 11.9997L16.7951 8.89181L15.1036 7.19988L11.9965 10.3077L8.88939 7.19988L7.19789 8.89181L10.305 11.9997L7.19789 15.1075L8.88939 16.7995L11.9965 13.6928V13.6916Z" fill="#D90429"/>
</svg>
