<svg width="36" height="36" viewBox="0 0 36 36" fill="none" xmlns="http://www.w3.org/2000/svg">
<path d="M31.6 10.875V10.8749C31.598 9.15826 30.9152 7.51252 29.7013 6.29868C28.4875 5.08484 26.8417 4.40202 25.1251 4.4H25.125H21.75C20.53 4.4 19.36 4.88464 18.4973 5.74731C17.6346 6.60998 17.15 7.78 17.15 9V18.9508L12.6033 14.3968L12.6032 14.3968C12.4432 14.2368 12.2262 14.1469 12 14.1469C11.7738 14.1469 11.5568 14.2368 11.3968 14.3968C11.2368 14.5568 11.1469 14.7738 11.1469 15C11.1469 15.2262 11.2368 15.4432 11.3968 15.6032L17.3968 21.6032L17.3968 21.6032L17.3983 21.6047C17.4786 21.6816 17.5732 21.7419 17.6767 21.7824C17.7786 21.8271 17.8887 21.8502 18 21.8502C18.1113 21.8502 18.2214 21.8271 18.3233 21.7824C18.4268 21.7419 18.5214 21.6816 18.6017 21.6047L18.6017 21.6048L18.6032 21.6032L24.6032 15.6032C24.7632 15.4432 24.8531 15.2262 24.8531 15C24.8531 14.7738 24.7632 14.5568 24.6032 14.3968C24.4432 14.2368 24.2262 14.1469 24 14.1469C23.7738 14.1469 23.5568 14.2368 23.3968 14.3968L23.3967 14.3968L18.85 18.9508V9C18.85 8.23087 19.1555 7.49325 19.6994 6.94939C20.2432 6.40553 20.9809 6.1 21.75 6.1L25.1248 6.1C26.3907 6.10194 27.6042 6.60566 28.4992 7.50076C29.3943 8.39585 29.8981 9.6093 29.9 10.8752V25.1248C29.8981 26.3907 29.3943 27.6042 28.4992 28.4992C27.6042 29.3943 26.3907 29.8981 25.1248 29.9H10.8752C9.6093 29.8981 8.39585 29.3943 7.50076 28.4992C6.60566 27.6042 6.10194 26.3907 6.1 25.1248V10.8752C6.10194 9.6093 6.60566 8.39585 7.50076 7.50076C8.39583 6.60568 9.60925 6.10196 10.8751 6.1C10.8751 6.1 10.8751 6.1 10.8752 6.1L12 6.1C12.2254 6.1 12.4416 6.01045 12.601 5.85104C12.7604 5.69163 12.85 5.47543 12.85 5.25C12.85 5.02457 12.7604 4.80837 12.601 4.64896C12.4416 4.48955 12.2254 4.4 12 4.4L10.875 4.4L10.8749 4.4C9.15826 4.40202 7.51252 5.08484 6.29868 6.29868C5.08484 7.51252 4.40202 9.15826 4.4 10.8749V10.875L4.4 25.125L4.4 25.1251C4.40202 26.8417 5.08484 28.4875 6.29868 29.7013C7.51252 30.9152 9.15826 31.598 10.8749 31.6H10.875H25.125H25.1251C26.8417 31.598 28.4875 30.9152 29.7013 29.7013C30.9152 28.4875 31.598 26.8417 31.6 25.1251V25.125V10.875Z" fill="#828282" stroke="#828282" stroke-width="0.2"/>
</svg>
