<svg width="20" height="20" viewBox="0 0 20 20" fill="none" xmlns="http://www.w3.org/2000/svg">
<path fill-rule="evenodd" clip-rule="evenodd" d="M0 12.992V2.75589C0 1.25987 1.25983 0 2.83466 0H17.1653C18.7401 0 20 1.25983 20 2.75589V17.3229C20 18.5827 18.9764 19.6064 17.7165 19.6064H2.28366C1.02383 19.6064 0.000140234 18.5828 0.000140234 17.3229V12.992H0ZM1.57479 12.992H6.69269V14.0157C6.69269 14.8818 7.32261 15.5117 8.18871 15.5117H11.8106C12.6767 15.5117 13.3066 14.8818 13.3066 14.0157V12.992H18.4245V2.75589C18.4245 2.12597 17.8734 1.57483 17.1647 1.57483H2.834C2.1253 1.57483 1.57416 2.12597 1.57416 2.75589V12.992H1.57479Z" fill="#007EBF"/>
<path d="M7.40135 9.29102C6.61403 8.58233 7.79508 7.40124 8.50364 8.18874L9.21233 8.89743V4.3306C9.21233 3.30695 10.7871 3.30695 10.7871 4.3306V8.89743L11.4958 8.18874C12.2045 7.40141 13.3856 8.58247 12.5981 9.29102L10.5509 11.3382C10.2359 11.6532 9.76358 11.6532 9.44862 11.3382L7.40142 9.29102H7.40135Z" fill="#007EBF"/>
</svg>
