<svg width="18" height="17" viewBox="0 0 18 17" fill="none" xmlns="http://www.w3.org/2000/svg">
<path d="M15.677 16.607L9.96198 10.891C7.41965 12.6985 3.91642 12.2563 1.90285 9.87393C-0.110711 7.49151 0.0371394 3.96359 2.24298 1.758C4.44824 -0.448557 7.97651 -0.597047 10.3594 1.41641C12.7422 3.42987 13.1846 6.93344 11.377 9.476L17.092 15.192L15.678 16.606L15.677 16.607ZM6.48498 1.99998C4.58868 1.99956 2.95267 3.33067 2.56745 5.18743C2.18224 7.04419 3.15369 8.91627 4.89366 9.67023C6.63362 10.4242 8.66388 9.85283 9.75522 8.30205C10.8466 6.75127 10.699 4.64731 9.40198 3.264L10.007 3.864L9.32498 3.184L9.31298 3.172C8.56477 2.41917 7.54637 1.99712 6.48498 1.99998Z" fill="#C0C6CC"/>
</svg>
