<svg width="50" height="50" viewBox="0 0 50 50" fill="none" xmlns="http://www.w3.org/2000/svg">
<path d="M15.625 13.5415C15.625 18.7103 19.8312 22.9165 25 22.9165C30.1687 22.9165 34.375 18.7103 34.375 13.5415C34.375 8.37275 30.1687 4.1665 25 4.1665C19.8312 4.1665 15.625 8.37275 15.625 13.5415ZM41.6667 43.7498H43.75V41.6665C43.75 33.6269 37.2062 27.0832 29.1667 27.0832H20.8333C12.7917 27.0832 6.25 33.6269 6.25 41.6665V43.7498H41.6667Z" fill="black"/>
<circle cx="36.9792" cy="38.0207" r="8.85417" fill="#D90429"/>
<path d="M36.8984 37.3528L38.6062 35.7477L39.3205 36.5077L37.6127 38.1128L39.2339 39.8377L38.4739 40.552L36.8527 38.8271L35.1492 40.4282L34.4349 39.6682L36.1384 38.0671L34.5012 36.3251L35.2612 35.6108L36.8984 37.3528Z" fill="white"/>
</svg>
