<svg width="128" height="128" viewBox="0 0 128 128" fill="none" xmlns="http://www.w3.org/2000/svg">
<path d="M64 0C28.648 0 0 28.648 0 64C0 99.352 28.648 128 64 128C99.352 128 128 99.352 128 64C128 28.648 99.352 0 64 0ZM97.952 97.952C88.872 107 76.824 112 64 112C51.176 112 39.128 107 30.048 97.952C21 88.872 16 76.824 16 64C16 51.176 21 39.128 30.048 30.048C39.128 21 51.176 16 64 16C76.824 16 88.872 21 97.952 30.048C107 39.128 112 51.176 112 64C112 76.824 107 88.872 97.952 97.952ZM86.272 39.328L56.128 72.824L42.096 58.976L30.848 70.352L56.8 96L98.152 50.024L86.272 39.328Z" fill="#2D6A4F"/>
</svg>
