<svg width="16" height="16" viewBox="0 0 16 16" fill="none" xmlns="http://www.w3.org/2000/svg">
<g clip-path="url(#clip0_3058_804)">
<path d="M1.69788 0V16H11.0274L14.302 12.7254V0L1.69788 0ZM2.63538 0.9375H13.3645V11.8646H10.1666V15.0625H2.63534V0.9375H2.63538ZM12.8995 12.8021L11.1041 14.5975V12.8021H12.8995Z" fill="#0F75BC"/>
<path d="M6 2.86459H10V3.80209H6V2.86459Z" fill="#0F75BC"/>
<path d="M4.1662 5.19791H11.8329V6.13541H4.1662V5.19791Z" fill="#0F75BC"/>
<path d="M4.1662 7.19791H11.8329V8.13541H4.1662V7.19791Z" fill="#0F75BC"/>
<path d="M4.1662 9.19794H11.8329V10.1354H4.1662V9.19794Z" fill="#0F75BC"/>
<path d="M4.1662 11.8645H5.15054V12.802H4.1662V11.8645Z" fill="#0F75BC"/>
<path d="M6.08807 11.8645H7.99958V12.802H6.08807V11.8645Z" fill="#0F75BC"/>
</g>
<defs>
<clipPath id="clip0_3058_804">
<rect width="16" height="16" fill="white"/>
</clipPath>
</defs>
</svg>
