<svg width="19" height="19" viewBox="0 0 19 19" fill="none" xmlns="http://www.w3.org/2000/svg">
<path d="M14.9783 4.75791C14.82 4.29083 14.3767 3.95833 13.8542 3.95833H5.14583C4.62333 3.95833 4.18792 4.29083 4.02167 4.75791L2.375 9.5V15.8333C2.375 16.2687 2.73125 16.625 3.16667 16.625H3.95833C4.39375 16.625 4.75 16.2687 4.75 15.8333V15.0417H14.25V15.8333C14.25 16.2687 14.6063 16.625 15.0417 16.625H15.8333C16.2688 16.625 16.625 16.2687 16.625 15.8333V9.5L14.9783 4.75791ZM5.14583 12.6667C4.48875 12.6667 3.95833 12.1362 3.95833 11.4792C3.95833 10.8221 4.48875 10.2917 5.14583 10.2917C5.80292 10.2917 6.33333 10.8221 6.33333 11.4792C6.33333 12.1362 5.80292 12.6667 5.14583 12.6667ZM13.8542 12.6667C13.1971 12.6667 12.6667 12.1362 12.6667 11.4792C12.6667 10.8221 13.1971 10.2917 13.8542 10.2917C14.5113 10.2917 15.0417 10.8221 15.0417 11.4792C15.0417 12.1362 14.5113 12.6667 13.8542 12.6667ZM3.95833 8.70833L5.14583 5.14583H13.8542L15.0417 8.70833H3.95833Z" fill="#0F75BC"/>
</svg>
