<svg width="16" height="24" viewBox="0 0 16 24" fill="none" xmlns="http://www.w3.org/2000/svg">
<path d="M5.86785 9.53454H5.76785V9.63454V10.0677V10.1601V10.1677V10.2601V10.6933V10.7777V10.7933V10.8777V11.3108V11.4108H5.86785H9.77513H9.87513V11.3108V10.8777V10.7933V10.7777V10.6933V10.2601V10.1677V10.1601V10.0677V9.63454V9.53454H9.77513H5.86785ZM6.4143 17.1621C6.46984 16.6435 7.03492 16.1992 7.81651 16.1992C8.64101 16.1992 9.23326 16.693 9.23326 17.2461V18.1647H8.53972H8.43972V18.2647V18.5214V18.6214H8.53972H9.23326V20.3463H8.85112H8.75112V20.4463V20.6308V20.7308H8.85112H9.23326V21.1361C9.23326 21.6884 8.642 22.175 7.81651 22.175C6.99196 22.175 6.40981 21.6891 6.40981 21.1361V20.0651H7.03302H7.13302V19.9651V19.7566V19.6566H7.03302H6.40981V17.6188H6.86228H6.96228V17.5188V17.2621V17.1621H6.86228H6.4143ZM7.81635 0.695898C6.23968 0.695898 4.88531 1.50779 4.38493 2.65292H2.17116C1.68899 2.65292 1.22975 2.78428 0.888126 3.01038C0.546637 3.23639 0.31333 3.56475 0.31333 3.95601C0.31333 4.34727 0.546637 4.67563 0.888126 4.90164C1.22975 5.12774 1.68899 5.2591 2.17116 5.2591H4.81678C5.24191 5.75286 5.85296 6.13159 6.56113 6.3413V7.43319H4.86312C3.93319 7.43319 3.06763 7.67436 2.43144 8.08044C1.79586 8.48612 1.37816 9.06507 1.37816 9.73887V16.7167C1.37816 17.3906 1.79601 17.9675 2.43167 18.3712C3.0679 18.7752 3.9334 19.0143 4.86312 19.0143H5.46625V21.136C5.46625 21.655 5.74074 22.1153 6.16818 22.4426C6.59547 22.7699 7.17977 22.9685 7.81625 22.9685C8.45269 22.9685 9.03939 22.7699 9.4691 22.4428C9.89891 22.1157 10.1763 21.6554 10.1763 21.136V19.0143H10.7794C11.7092 19.0143 12.5747 18.7752 13.2109 18.3712C13.8465 17.9675 14.2644 17.3906 14.2644 16.7167V9.73887C14.2644 9.06509 13.8466 8.48613 13.2111 8.08045C12.5748 7.67437 11.7093 7.43319 10.7794 7.43319H9.0814V6.34125C9.7885 6.1313 10.401 5.75242 10.8257 5.2591H13.4714C13.9535 5.2591 14.4128 5.12774 14.7544 4.90164C15.0959 4.67563 15.3292 4.34727 15.3292 3.95601C15.3292 3.56475 15.0959 3.23639 14.7544 3.01038C14.4128 2.78428 13.9535 2.65292 13.4714 2.65292H11.2576C10.7569 1.50745 9.39282 0.695898 7.81635 0.695898ZM7.81635 1.48942C9.3346 1.48942 10.5188 2.45523 10.5188 3.61111C10.5188 4.76742 9.33409 5.74083 7.81635 5.74083C6.2991 5.74083 5.12393 4.76782 5.12393 3.61111C5.12393 2.4548 6.2986 1.48942 7.81635 1.48942ZM2.17142 3.44645H4.18942C4.1844 3.50008 4.18079 3.55544 4.18079 3.61111C4.18079 3.9094 4.23671 4.19524 4.34108 4.46557H2.1714C1.88409 4.46557 1.64992 4.39389 1.49076 4.2919C1.32948 4.18855 1.25691 4.0634 1.25691 3.95601C1.25691 3.84862 1.32948 3.72347 1.49078 3.62012C1.64995 3.51813 1.88412 3.44645 2.17142 3.44645ZM11.4622 3.61111C11.4622 3.55544 11.4586 3.50008 11.4536 3.44645H13.4716C13.7589 3.44645 13.993 3.51813 14.1522 3.62012C14.3135 3.72347 14.3861 3.84862 14.3861 3.95601C14.3861 4.0634 14.3135 4.18855 14.1522 4.2919C13.993 4.39389 13.7589 4.46557 13.4716 4.46557H11.2926C11.3988 4.19651 11.4622 3.91121 11.4622 3.61111ZM7.49466 7.43311L7.49463 6.51153C7.59967 6.52011 7.70717 6.52627 7.81651 6.52627C7.92907 6.52627 8.03988 6.52037 8.14844 6.51158V7.43311H7.49466ZM4.86338 8.22667H6.97276H8.68035H10.7797C11.5207 8.22667 12.162 8.41173 12.6149 8.69609C13.0695 8.98157 13.3214 9.35731 13.3214 9.73879V16.7166C13.3214 17.0981 13.0695 17.4738 12.6149 17.7593C12.162 18.0437 11.5207 18.2287 10.7797 18.2287H10.1765V17.2459C10.1765 16.7266 9.89916 16.2663 9.46935 15.9391C9.03965 15.612 8.45294 15.4135 7.81651 15.4135C7.18003 15.4135 6.59572 15.6121 6.16844 15.9393C5.741 16.2666 5.46651 16.7269 5.46651 17.2459V18.2287H4.86338C4.12233 18.2287 3.48101 18.0437 3.02816 17.7593C2.57352 17.4738 2.32162 17.0981 2.32162 16.7166V9.73879C2.32162 9.35731 2.57352 8.98157 3.02815 8.69609C3.48099 8.41173 4.12232 8.22667 4.86338 8.22667Z" fill="#0F75BC" stroke="#0F75BC" stroke-width="0.2"/>
</svg>
