<svg width="50" height="40" viewBox="0 0 50 40" fill="none" xmlns="http://www.w3.org/2000/svg">
<path d="M37.4365 13.1855C37.5354 12.6432 37.5831 12.0929 37.579 11.542C37.5662 8.07622 35.9377 4.81492 33.1751 2.72245C30.4123 0.630147 26.8317 -0.0540971 23.4925 0.872804C20.1529 1.79938 17.4369 4.23076 16.1474 7.44751C15.384 7.07726 14.5449 6.88864 13.6965 6.8966C12.0995 6.88133 10.5634 7.5089 9.43392 8.63811C8.30475 9.76761 7.67717 11.3036 7.6924 12.9007C7.67713 13.103 7.67713 13.3063 7.6924 13.5086C6.12205 13.9421 4.73899 14.882 3.7581 16.1827C2.77713 17.483 2.2533 19.0712 2.26787 20.7001V21.0707C2.27042 23.0555 3.0599 24.9579 4.46327 26.3613C5.86661 27.7647 7.76943 28.5542 9.75393 28.5567H18.4937C19.0185 28.5567 19.4438 28.1315 19.4438 27.6066C19.4438 27.0821 19.0185 26.6568 18.4937 26.6568H9.75393C8.28154 26.6276 6.87755 26.0296 5.83616 24.9885C4.79509 23.9471 4.19708 22.5431 4.16785 21.0708V20.7002C4.16053 19.355 4.64846 18.0538 5.53845 17.0448C6.42814 16.0355 7.65812 15.3892 8.99412 15.2282C9.26576 15.1986 9.51164 15.0532 9.66845 14.8293C9.82717 14.6028 9.87901 14.3182 9.81095 14.0503L9.74447 13.794V13.7937C9.65731 13.5099 9.6061 13.2163 9.59242 12.9199C9.58224 11.8283 10.0113 10.7783 10.7833 10.0067C11.555 9.23467 12.605 8.80558 13.6966 8.81576C14.5369 8.79095 15.355 9.08645 15.9858 9.64243C16.2323 9.89435 16.5981 9.98945 16.9359 9.88925C17.2619 9.79891 17.5151 9.54191 17.601 9.21493C18.3863 6.32551 20.5267 3.9978 23.3404 2.97326C26.1539 1.94873 29.2897 2.35524 31.7495 4.06302C34.2093 5.77081 35.6852 8.567 35.7084 11.5615C35.7405 12.3032 35.6072 13.043 35.3187 13.7273C35.1698 14.0228 35.1854 14.3746 35.3601 14.6557C35.5344 14.9369 35.8429 15.1071 36.1737 15.1049H37.2758C38.7447 15.1414 40.143 15.7436 41.1784 16.7862C42.2141 17.8289 42.8066 19.2309 42.8333 20.7001V21.0707C42.8041 22.5431 42.2061 23.9471 41.165 24.9885C40.1236 26.0296 38.7197 26.6276 37.2473 26.6568H28.4978C27.9729 26.6568 27.5477 27.0821 27.5477 27.6066C27.5477 28.1314 27.9729 28.5567 28.4978 28.5567H37.2473C39.2318 28.5541 41.1345 27.7647 42.5379 26.3613C43.9413 24.9579 44.7308 23.0555 44.7333 21.0706V20.7001C44.739 18.7429 43.9788 16.8614 42.6155 15.4571C41.2522 14.0531 39.3937 13.2379 37.4371 13.1857L37.4365 13.1855Z" fill="#2F80ED"/>
<path d="M24.5351 20.225C24.4498 20.1506 24.3538 20.0898 24.2501 20.0447H24.1645H24.1648C24.0847 20.0186 24.0017 20.0027 23.9177 19.997H23.8321C23.7281 19.9966 23.625 20.016 23.5283 20.0539C23.4243 20.0936 23.3305 20.155 23.2526 20.2346L20.6306 22.8565C20.4519 23.0343 20.3507 23.2754 20.3501 23.5276C20.3492 23.7799 20.4484 24.0219 20.6259 24.2007C20.9958 24.5732 21.5976 24.5754 21.9701 24.2055L22.9676 23.208V34.2472C22.9676 34.7721 23.3932 35.1973 23.9177 35.1973C24.4425 35.1973 24.8678 34.7721 24.8678 34.2472V23.199L25.8748 24.1965C26.2454 24.5648 26.8437 24.5648 27.2143 24.1965C27.394 24.0181 27.4951 23.7754 27.4951 23.5222C27.4951 23.2687 27.394 23.026 27.2143 22.8475L24.5351 20.225Z" fill="#2F80ED"/>
<path d="M21.2482 11C21.6156 10.9975 21.9487 10.7828 22.1032 10.4491C22.1888 10.278 24.1934 6.11717 28.6109 7.77946L28.6105 7.77977C29.101 7.95885 29.6443 7.70852 29.8266 7.21932C30.0066 6.73138 29.7611 6.18941 29.2757 6.00326C27.6099 5.33975 25.7514 5.34961 24.0926 6.02998C22.4335 6.71068 21.1039 8.0091 20.3838 9.65103C20.1608 10.1259 20.365 10.6914 20.8396 10.9148C20.9684 10.9711 21.1077 11.0004 21.2483 11L21.2482 11Z" fill="#2F80ED"/>
</svg>
