<svg width="71" height="64" viewBox="0 0 71 64" fill="none" xmlns="http://www.w3.org/2000/svg">
<path d="M65.6847 0.000601168H11.7904C10.4505 0.000601168 9.16531 0.532793 8.2178 1.48086C7.27032 2.42834 6.73814 3.71362 6.73814 5.05346V24.4548C2.47186 27.9704 0 33.2089 0 38.7369C0 44.265 2.47186 49.5035 6.73814 53.0191V58.9471C6.73814 60.287 7.27033 61.5722 8.2178 62.5197C9.16528 63.4678 10.4506 64 11.7904 64H65.6847C67.0245 64 68.3098 63.4678 69.2573 62.5197C70.2048 61.5723 70.7369 60.287 70.7369 58.9471V5.05286C70.7369 3.71299 70.2047 2.42777 69.2573 1.48026C68.3098 0.532192 67.0245 0 65.6847 0V0.000601168ZM11.7904 3.36929H65.6847C66.1311 3.36929 66.5593 3.54669 66.8753 3.86212C67.1914 4.17815 67.3688 4.60635 67.3688 5.05337V13.4744H10.1061V5.05337C10.1061 4.12293 10.8603 3.36932 11.7901 3.36932L11.7904 3.36929ZM3.36942 38.7374C3.36883 34.0006 5.58804 29.5369 9.365 26.6787C9.449 26.6029 9.53887 26.5354 9.63463 26.4766C12.2151 24.5887 15.3301 23.5737 18.5273 23.5795C22.89 23.5819 27.0405 25.4639 29.9164 28.7446C32.7929 32.0252 34.1158 36.3866 33.5477 40.7123C32.9791 45.038 30.5743 48.9089 26.9482 51.3349V50.5267C26.9482 47.518 25.3434 44.7384 22.7377 43.2341C20.132 41.7297 16.9224 41.7297 14.3167 43.2341C11.711 44.7384 10.1062 47.518 10.1062 50.5267V51.3014C9.93762 51.2004 9.76962 51.0994 9.63452 50.9984C9.53877 50.939 9.4489 50.8715 9.3649 50.7963C5.58794 47.9374 3.36871 43.4744 3.36931 38.7376L3.36942 38.7374ZM23.5798 53.0196H23.5804C20.3127 54.1873 16.7424 54.1873 13.4747 53.0196V50.5266C13.4747 48.7215 14.4381 47.0539 16.0012 46.151C17.5648 45.2482 19.4903 45.2482 21.0541 46.151C22.6172 47.0539 23.5805 48.7215 23.5805 50.5266L23.5798 53.0196ZM65.6847 60.6317H11.7904C10.8605 60.6317 10.1064 59.878 10.1064 58.9476V55.2089L10.7125 55.5119C10.9481 55.613 11.1842 55.7475 11.4538 55.8485H11.4873V55.8491C13.7159 56.7854 16.1095 57.2665 18.5273 57.2636C20.9555 57.263 23.3593 56.7825 25.6007 55.8491C25.6683 55.8491 25.7018 55.8156 25.7693 55.8156C25.9714 55.7146 26.14 55.6136 26.3086 55.546L26.308 55.5454C31.4512 53.1617 35.2201 48.5542 36.5365 43.0409C37.8534 37.5269 36.5735 31.7141 33.0625 27.2636C29.5515 22.8131 24.1963 20.2148 18.5273 20.2117C15.5956 20.2076 12.7067 20.9125 10.1063 22.2665V16.8431H67.369V58.948C67.369 59.395 67.1916 59.8232 66.8756 60.1392C66.5595 60.4547 66.1313 60.632 65.6849 60.632L65.6847 60.6317ZM61.1334 9.60052C60.8133 9.29213 60.6324 8.86627 60.6324 8.42161C60.6324 7.97696 60.8133 7.55108 61.1334 7.24271C61.6075 6.75928 62.3276 6.61301 62.9527 6.87206C63.1647 6.94255 63.3527 7.0706 63.4948 7.24271C63.8179 7.54992 64.0006 7.97578 64.0006 8.42161C64.0006 8.86744 63.8179 9.29332 63.4948 9.60052C63.3527 9.77262 63.1647 9.90127 62.9527 9.97116C62.7535 10.064 62.5356 10.1104 62.3159 10.1057C61.8683 10.111 61.4395 9.92769 61.1335 9.60051L61.1334 9.60052ZM54.3965 9.60052H54.3971C54.0717 9.29567 53.8896 8.86744 53.8949 8.42161C53.8908 8.20074 53.9372 7.98223 54.03 7.78193C54.2074 7.37487 54.5322 7.05003 54.9393 6.87205C55.3481 6.70464 55.8069 6.70464 56.2157 6.87205C56.4278 6.94254 56.6157 7.07059 56.7579 7.24269C56.9271 7.3866 57.0551 7.57222 57.1285 7.78192C57.2213 7.98222 57.2677 8.20074 57.2636 8.4216C57.2554 9.09711 56.8442 9.70213 56.2198 9.95888C55.5954 10.2156 54.8776 10.0746 54.3971 9.60057L54.3965 9.60052ZM47.2931 9.06188C47.2003 8.86158 47.1539 8.64247 47.158 8.42161C47.1527 7.97578 47.3348 7.54815 47.6602 7.24271C47.803 7.07177 47.9909 6.94313 48.2024 6.87206C48.6112 6.70465 49.07 6.70465 49.4788 6.87206C49.6909 6.94255 49.8789 7.0706 50.0216 7.24271C50.3441 7.54992 50.5273 7.97578 50.5273 8.42161C50.5273 8.86744 50.3441 9.29332 50.0216 9.60052C49.8789 9.77262 49.6909 9.90127 49.4788 9.97116C49.2797 10.064 49.0624 10.1104 48.8427 10.1057C48.6212 10.1133 48.4015 10.0669 48.2024 9.97116C47.7953 9.79377 47.4705 9.46894 47.2931 9.06186L47.2931 9.06188ZM18.5264 40.421C20.3133 40.421 22.0267 39.7114 23.2903 38.4479C24.5532 37.1845 25.2634 35.471 25.2634 33.6841C25.2634 31.8972 24.5532 30.1838 23.2903 28.9208C22.0268 27.6573 20.3133 26.9471 18.5264 26.9471C16.7395 26.9471 15.0262 27.6573 13.7626 28.9208C12.4997 30.1837 11.7895 31.8972 11.7895 33.6841C11.7895 35.471 12.4997 37.1843 13.7626 38.4479C15.0261 39.7114 16.7395 40.421 18.5264 40.421ZM18.5264 30.316C19.4199 30.316 20.2763 30.6708 20.9084 31.3022C21.5398 31.9343 21.8946 32.7907 21.8946 33.6842C21.8946 34.5776 21.5398 35.4347 20.9084 36.0661C20.2763 36.6976 19.4199 37.0529 18.5264 37.0529C17.633 37.0529 16.7765 36.6976 16.1445 36.0661C15.513 35.4346 15.1583 34.5776 15.1583 33.6842C15.1583 32.7907 15.513 31.9343 16.1445 31.3022C16.7765 30.6708 17.633 30.316 18.5264 30.316V30.316ZM48.842 40.421H42.105C41.1746 40.421 40.421 41.1752 40.421 42.1051V48.842C40.421 49.2884 40.5984 49.7172 40.9138 50.0327C41.2298 50.3487 41.658 50.5261 42.1051 50.5261H48.842C49.2884 50.5261 49.7166 50.3487 50.0327 50.0327C50.3487 49.7172 50.5261 49.2884 50.5261 48.842V42.1051C50.5261 41.6586 50.3487 41.2298 50.0327 40.9144C49.7166 40.5984 49.2884 40.421 48.842 40.421L48.842 40.421ZM47.1573 47.1579H43.7892V43.7893H47.1573V47.1579ZM62.3151 40.421H55.5781C54.6483 40.421 53.8941 41.1752 53.8941 42.1051V48.842C53.8941 49.2884 54.0715 49.7172 54.3875 50.0327C54.7035 50.3487 55.1318 50.5261 55.5782 50.5261H62.3151C62.7621 50.5261 63.1903 50.3487 63.5064 50.0327C63.8218 49.7172 63.9992 49.2884 63.9992 48.842V42.1051C63.9992 41.6586 63.8218 41.2298 63.5064 40.9144C63.1903 40.5984 62.7621 40.421 62.3151 40.421L62.3151 40.421ZM60.631 47.1579H57.263V43.7893H60.631V47.1579ZM50.526 55.5789C50.526 56.0254 50.3486 56.4542 50.0326 56.7696C49.7166 57.0856 49.2884 57.263 48.8419 57.263H42.105C41.1746 57.263 40.421 56.5088 40.421 55.579C40.421 54.6485 41.1746 53.8949 42.105 53.8949H48.8419C49.2884 53.8949 49.7166 54.0723 50.0326 54.3877C50.3486 54.7038 50.526 55.132 50.526 55.579V55.5789ZM63.9999 55.5789H63.9993C63.9993 56.0254 63.8219 56.4542 63.5065 56.7696C63.1904 57.0856 62.7622 57.263 62.3152 57.263H55.5783C54.6484 57.263 53.8942 56.5088 53.8942 55.579C53.8942 54.6485 54.6485 53.8949 55.5783 53.8949H62.3152C62.7622 53.8949 63.1904 54.0723 63.5065 54.3877C63.8219 54.7038 63.9993 55.132 63.9993 55.579L63.9999 55.5789ZM40.4211 35.3686V31.9999C40.4211 31.0694 41.1748 30.3158 42.1052 30.3158C43.035 30.3158 43.7892 31.0695 43.7892 31.9999V35.368C43.7892 36.2984 43.035 37.0526 42.1052 37.0526C41.1747 37.0526 40.4211 36.2984 40.4211 35.368V35.3686ZM50.5262 25.2635V35.3686V35.368C50.5262 36.2984 49.7719 37.0526 48.8421 37.0526C47.9117 37.0526 47.1575 36.2984 47.1575 35.368V25.263C47.1575 24.3331 47.9117 23.5789 48.8421 23.5789C49.772 23.5789 50.5262 24.3331 50.5262 25.263V25.2635ZM53.8943 35.3686V28.6316C53.8943 27.7012 54.6485 26.947 55.5783 26.947C56.5087 26.947 57.263 27.7012 57.263 28.6316V35.3686V35.368C57.263 36.2984 56.5087 37.0526 55.5783 37.0526C54.6484 37.0526 53.8943 36.2984 53.8943 35.368V35.3686ZM63.9993 21.8947V35.3686V35.368C63.9993 36.2984 63.2456 37.0526 62.3152 37.0526C61.3854 37.0526 60.6312 36.2984 60.6312 35.368V21.8941V21.8947C60.6312 20.9643 61.3854 20.2107 62.3152 20.2107C63.2457 20.2107 63.9993 20.9643 63.9993 21.8947V21.8947Z" fill="black"/>
</svg>
