<svg width="12" height="13" viewBox="0 0 12 13" fill="none" xmlns="http://www.w3.org/2000/svg">
<circle cx="6" cy="4" r="3.5" stroke="#0F75BC"/>
<mask id="path-2-inside-1_2401_5584" fill="white">
<path d="M12 13C12 12.2121 11.8448 11.4319 11.5433 10.7039C11.2417 9.97595 10.7998 9.31451 10.2426 8.75736C9.68549 8.20021 9.02405 7.75825 8.2961 7.45672C7.56815 7.15519 6.78793 7 6 7C5.21207 7 4.43185 7.15519 3.7039 7.45672C2.97595 7.75825 2.31451 8.20021 1.75736 8.75736C1.20021 9.31451 0.758251 9.97595 0.456723 10.7039C0.155194 11.4319 -6.88831e-08 12.2121 0 13H0.98459C0.98459 12.3414 1.11432 11.6892 1.36637 11.0807C1.61841 10.4722 1.98785 9.91929 2.45357 9.45357C2.91929 8.98785 3.47219 8.61841 4.08069 8.36637C4.68918 8.11432 5.34137 7.98459 6 7.98459C6.65863 7.98459 7.31082 8.11432 7.91931 8.36637C8.52781 8.61841 9.08071 8.98785 9.54643 9.45357C10.0122 9.91929 10.3816 10.4722 10.6336 11.0807C10.8857 11.6892 11.0154 12.3414 11.0154 13H12Z"/>
</mask>
<path d="M12 13C12 12.2121 11.8448 11.4319 11.5433 10.7039C11.2417 9.97595 10.7998 9.31451 10.2426 8.75736C9.68549 8.20021 9.02405 7.75825 8.2961 7.45672C7.56815 7.15519 6.78793 7 6 7C5.21207 7 4.43185 7.15519 3.7039 7.45672C2.97595 7.75825 2.31451 8.20021 1.75736 8.75736C1.20021 9.31451 0.758251 9.97595 0.456723 10.7039C0.155194 11.4319 -6.88831e-08 12.2121 0 13H0.98459C0.98459 12.3414 1.11432 11.6892 1.36637 11.0807C1.61841 10.4722 1.98785 9.91929 2.45357 9.45357C2.91929 8.98785 3.47219 8.61841 4.08069 8.36637C4.68918 8.11432 5.34137 7.98459 6 7.98459C6.65863 7.98459 7.31082 8.11432 7.91931 8.36637C8.52781 8.61841 9.08071 8.98785 9.54643 9.45357C10.0122 9.91929 10.3816 10.4722 10.6336 11.0807C10.8857 11.6892 11.0154 12.3414 11.0154 13H12Z" fill="#0F75BC"/>
<path d="M12 13V14H13V13H12ZM0 13L-1 13L-1 14H0V13ZM0.98459 13V14H1.98459L1.98459 13L0.98459 13ZM6 7.98459L6 8.98459L6 7.98459ZM11.0154 13H10.0154V14H11.0154V13ZM13 13C13 12.0807 12.8189 11.1705 12.4672 10.3212L10.6194 11.0866C10.8707 11.6932 11 12.3434 11 13H13ZM12.4672 10.3212C12.1154 9.47194 11.5998 8.70026 10.9497 8.05025L9.53553 9.46447C9.99983 9.92876 10.3681 10.48 10.6194 11.0866L12.4672 10.3212ZM10.9497 8.05025C10.2997 7.40024 9.52806 6.88463 8.67878 6.53284L7.91342 8.3806C8.52004 8.63188 9.07124 9.00017 9.53553 9.46447L10.9497 8.05025ZM8.67878 6.53284C7.8295 6.18106 6.91925 6 6 6L6 8C6.65661 8 7.30679 8.12933 7.91342 8.3806L8.67878 6.53284ZM6 6C5.08075 6 4.17049 6.18106 3.32122 6.53284L4.08658 8.3806C4.69321 8.12933 5.34339 8 6 8L6 6ZM3.32122 6.53284C2.47194 6.88463 1.70026 7.40024 1.05025 8.05025L2.46447 9.46447C2.92876 9.00017 3.47995 8.63188 4.08658 8.3806L3.32122 6.53284ZM1.05025 8.05025C0.400242 8.70026 -0.115374 9.47194 -0.467157 10.3212L1.3806 11.0866C1.63188 10.48 2.00017 9.92876 2.46447 9.46447L1.05025 8.05025ZM-0.467157 10.3212C-0.81894 11.1705 -1 12.0807 -1 13L1 13C1 12.3434 1.12933 11.6932 1.3806 11.0866L-0.467157 10.3212ZM0 14H0.98459V12H0V14ZM1.98459 13C1.98459 12.4727 2.08845 11.9505 2.29024 11.4634L0.442486 10.698C0.140183 11.4278 -0.01541 12.21 -0.0154099 13L1.98459 13ZM2.29024 11.4634C2.49204 10.9762 2.78781 10.5335 3.16068 10.1607L1.74646 8.74646C1.18788 9.30505 0.744788 9.96818 0.442486 10.698L2.29024 11.4634ZM3.16068 10.1607C3.53354 9.78781 3.9762 9.49204 4.46337 9.29025L3.698 7.44249C2.96818 7.74479 2.30505 8.18788 1.74646 8.74646L3.16068 10.1607ZM4.46337 9.29025C4.95054 9.08845 5.47269 8.98459 6 8.98459L6 6.98459C5.21004 6.98459 4.42783 7.14018 3.698 7.44249L4.46337 9.29025ZM6 8.98459C6.52731 8.98459 7.04946 9.08845 7.53663 9.29024L8.302 7.44249C7.57217 7.14018 6.78995 6.98459 6 6.98459L6 8.98459ZM7.53663 9.29024C8.0238 9.49204 8.46646 9.78781 8.83932 10.1607L10.2535 8.74646C9.69495 8.18788 9.03182 7.74479 8.302 7.44249L7.53663 9.29024ZM8.83932 10.1607C9.21219 10.5335 9.50796 10.9762 9.70976 11.4634L11.5575 10.698C11.2552 9.96818 10.8121 9.30505 10.2535 8.74646L8.83932 10.1607ZM9.70976 11.4634C9.91155 11.9505 10.0154 12.4727 10.0154 13H12.0154C12.0154 12.21 11.8598 11.4278 11.5575 10.698L9.70976 11.4634ZM11.0154 14H12V12H11.0154V14Z" fill="#0F75BC" mask="url(#path-2-inside-1_2401_5584)"/>
</svg>
