<svg width="12" height="13" viewBox="0 0 12 13" fill="none" xmlns="http://www.w3.org/2000/svg">
<circle cx="6" cy="4" r="3.5" stroke="white"/>
<path d="M12 13C12 12.2121 11.8448 11.4319 11.5433 10.7039C11.2417 9.97595 10.7998 9.31451 10.2426 8.75736C9.68549 8.20021 9.02405 7.75825 8.2961 7.45672C7.56815 7.15519 6.78793 7 6 7C5.21207 7 4.43185 7.15519 3.7039 7.45672C2.97595 7.75825 2.31451 8.20021 1.75736 8.75736C1.20021 9.31451 0.758251 9.97595 0.456723 10.7039C0.155194 11.4319 -6.88831e-08 12.2121 0 13H0.98459C0.98459 12.3414 1.11432 11.6892 1.36637 11.0807C1.61841 10.4722 1.98785 9.91929 2.45357 9.45357C2.91929 8.98785 3.47219 8.61841 4.08069 8.36637C4.68918 8.11432 5.34137 7.98459 6 7.98459C6.65863 7.98459 7.31082 8.11432 7.91931 8.36637C8.52781 8.61841 9.08071 8.98785 9.54643 9.45357C10.0122 9.91929 10.3816 10.4722 10.6336 11.0807C10.8857 11.6892 11.0154 12.3414 11.0154 13H12Z" fill="white"/>
</svg>
