<svg width="18" height="18" viewBox="0 0 18 18" fill="none" xmlns="http://www.w3.org/2000/svg">
<path d="M12.6562 2.8125H14.625C14.7742 2.8125 14.9173 2.87176 15.0227 2.97725C15.1282 3.08274 15.1875 3.22582 15.1875 3.375V5.34375" stroke="#0F75BC" stroke-linecap="round" stroke-linejoin="round"/>
<path d="M12.6562 15.1875H14.625C14.7742 15.1875 14.9173 15.1282 15.0227 15.0227C15.1282 14.9173 15.1875 14.7742 15.1875 14.625V12.6562" stroke="#0F75BC" stroke-linecap="round" stroke-linejoin="round"/>
<path d="M5.34375 15.1875H3.375C3.22582 15.1875 3.08274 15.1282 2.97725 15.0227C2.87176 14.9173 2.8125 14.7742 2.8125 14.625V12.6562" stroke="#0F75BC" stroke-linecap="round" stroke-linejoin="round"/>
<path d="M5.34375 2.8125H3.375C3.22582 2.8125 3.08274 2.87176 2.97725 2.97725C2.87176 3.08274 2.8125 3.22582 2.8125 3.375V5.34375" stroke="#0F75BC" stroke-linecap="round" stroke-linejoin="round"/>
<path d="M9 10.125C10.2426 10.125 11.25 9.11764 11.25 7.875C11.25 6.63236 10.2426 5.625 9 5.625C7.75736 5.625 6.75 6.63236 6.75 7.875C6.75 9.11764 7.75736 10.125 9 10.125Z" stroke="#0F75BC" stroke-linecap="round" stroke-linejoin="round"/>
<path d="M5.26636 12.375C5.62593 11.6967 6.16348 11.1292 6.82127 10.7334C7.47907 10.3376 8.23226 10.1285 8.99995 10.1285C9.76764 10.1285 10.5208 10.3376 11.1786 10.7334C11.8364 11.1292 12.374 11.6967 12.7335 12.375" stroke="#0F75BC" stroke-linecap="round" stroke-linejoin="round"/>
</svg>
