<svg width="20" height="19" viewBox="0 0 20 19" fill="none" xmlns="http://www.w3.org/2000/svg">
<path d="M13.325 17.8044H8.32501C6.65939 17.8044 4.99689 17.8044 3.32501 17.8044C2.90442 17.8103 2.48462 17.7691 2.07501 17.6818C1.75859 17.6178 1.45946 17.4966 1.19537 17.3252C0.931266 17.1539 0.707563 16.936 0.537511 16.6843C0.37944 16.4264 0.279489 16.1423 0.243534 15.8486C0.207578 15.5549 0.236342 15.2577 0.328136 14.9743C0.431944 14.6423 0.583245 14.3241 0.778136 14.0281C2.5698 11.1781 4.36355 8.32813 6.15939 5.47813L7.60314 3.19813C7.85678 2.78579 8.19526 2.42195 8.60001 2.12653C9.00773 1.85149 9.50227 1.70448 10.0094 1.70757C10.5165 1.71065 11.0088 1.86366 11.4125 2.14363C11.8149 2.44008 12.1502 2.80499 12.4 3.21808L19.2156 14.0053C19.5007 14.4284 19.677 14.9049 19.7313 15.399C19.7891 15.9199 19.6324 16.4419 19.2916 16.8633C18.9509 17.2848 18.4504 17.5755 17.8875 17.679C17.4775 17.7638 17.0579 17.804 16.6375 17.7987C15.5438 17.8044 14.4344 17.8044 13.325 17.8044ZM10 16.8069H11.6625C13.325 16.8069 14.9844 16.8069 16.6625 16.8069C16.9934 16.8116 17.3238 16.781 17.6469 16.7157C17.9581 16.6679 18.237 16.5122 18.4252 16.2811C18.6133 16.05 18.6962 15.7615 18.6563 15.4759C18.6158 15.132 18.4885 14.8013 18.2844 14.5098L11.4594 3.71113C11.2801 3.40514 11.037 3.13406 10.7438 2.91313C10.53 2.77112 10.2723 2.69461 10.0078 2.69461C9.74334 2.69461 9.48567 2.77112 9.27189 2.91313C8.97742 3.12694 8.73301 3.39249 8.55314 3.69403L7.10939 5.97403C5.31355 8.82403 3.5198 11.674 1.72814 14.524C1.59352 14.7435 1.48859 14.977 1.41564 15.2194C1.36052 15.3764 1.34097 15.542 1.35816 15.7062C1.37535 15.8703 1.42892 16.0295 1.51564 16.1742C1.61114 16.312 1.73623 16.4308 1.88338 16.5233C2.03053 16.6159 2.1967 16.6804 2.37189 16.7128C2.69485 16.7789 3.02532 16.8095 3.35626 16.804C5.01564 16.804 6.67814 16.804 8.35626 16.804L10 16.8069Z" fill="#EC4747"/>
<path d="M10 4.72314C9.73672 4.72426 9.47626 4.77285 9.23364 4.86612C8.99102 4.95939 8.77101 5.0955 8.58629 5.26661C8.40157 5.43773 8.25578 5.64047 8.1573 5.86317C8.05883 6.08587 8.00962 6.32413 8.01251 6.56424L9.08751 11.4833C9.13471 11.6722 9.25086 11.8409 9.41693 11.9617C9.583 12.0826 9.78914 12.1484 10.0016 12.1484C10.214 12.1484 10.4201 12.0826 10.5862 11.9617C10.7523 11.8409 10.8684 11.6722 10.9156 11.4833L11.9844 6.61839V6.54999C11.9856 6.31121 11.9353 6.07454 11.8362 5.85351C11.7372 5.63247 11.5913 5.43139 11.4071 5.26175C11.2228 5.09211 11.0037 4.95724 10.7623 4.86482C10.5209 4.77241 10.2618 4.72426 10 4.72314ZM10 5.54394C10.2819 5.54517 10.5524 5.64533 10.7555 5.82363C10.9586 6.00194 11.0786 6.2447 11.0906 6.50154L10.0313 11.3237C10.0291 11.3301 10.0247 11.3357 10.0188 11.3397C10.0129 11.3436 10.0058 11.3457 9.99845 11.3457C9.99112 11.3457 9.98399 11.3436 9.97808 11.3397C9.97218 11.3357 9.96782 11.3301 9.96564 11.3237L8.90939 6.50154C8.92067 6.24446 9.04044 6.00129 9.24368 5.82285C9.44691 5.6444 9.71789 5.54447 10 5.54394Z" fill="#EC4747"/>
<path d="M9.99998 12.6035C9.70269 12.6035 9.41208 12.6839 9.16489 12.8345C8.9177 12.9852 8.72504 13.1993 8.61128 13.4498C8.49751 13.7003 8.46774 13.9759 8.52574 14.2418C8.58374 14.5077 8.7269 14.752 8.93711 14.9437C9.14733 15.1354 9.41516 15.266 9.70674 15.3189C9.99831 15.3718 10.3005 15.3446 10.5752 15.2409C10.8499 15.1371 11.0846 14.9614 11.2498 14.736C11.415 14.5105 11.5031 14.2455 11.5031 13.9744C11.5023 13.611 11.3437 13.2628 11.0619 13.0059C10.7802 12.7489 10.3984 12.6043 9.99998 12.6035ZM9.99998 14.5244C9.8807 14.5244 9.76409 14.4922 9.6649 14.4317C9.56572 14.3713 9.48842 14.2854 9.44277 14.1849C9.39712 14.0844 9.38517 13.9738 9.40845 13.8671C9.43172 13.7604 9.48916 13.6623 9.57351 13.5854C9.65786 13.5085 9.76532 13.4561 9.88232 13.4349C9.99931 13.4137 10.1206 13.4246 10.2308 13.4662C10.341 13.5078 10.4352 13.5783 10.5015 13.6688C10.5677 13.7592 10.6031 13.8656 10.6031 13.9744C10.6044 14.0473 10.5897 14.1198 10.5599 14.1875C10.5302 14.2552 10.4859 14.3169 10.4298 14.3688C10.3737 14.4208 10.3068 14.4621 10.233 14.4903C10.1592 14.5185 10.08 14.533 9.99998 14.533V14.5244Z" fill="#EC4747"/>
</svg>
